<?xml version="1.0" standalone="yes"?>
<svg xmlns="http://www.w3.org/2000/svg" width="108" height="108">
<path style="fill:#000000; stroke:none;" d="M0 0L0 108L108 108L108 0L0 0z"/>
<path style="fill:#717272; stroke:none;" d="M8.66667 38.3333L8.66667 38.6667L9.33333 38.6667L9.33333 38.3333L8.66667 38.3333z"/>
<path style="fill:#585959; stroke:none;" d="M62 38L63 39L62 38z"/>
<path style="fill:#646464; stroke:none;" d="M10 39L11 40L10 39z"/>
<path style="fill:#585859; stroke:none;" d="M63 39L64 40L63 39z"/>
<path style="fill:#353636; stroke:none;" d="M90.6667 40.3333L91 40.6667L91.3333 40.6667L91.3333 40.3333L90.6667 40.3333z"/>
<path style="fill:#a6e3fb; stroke:none;" d="M41.6667 41.3333L41.6667 41.6667L42.3333 41.6667L42.3333 41.3333L41.6667 41.3333z"/>
<path style="fill:#4c4d4f; stroke:none;" d="M43 41L43 45L43.7222 44.2222L43.7222 43.7222L43.8889 43L43.7222 41.7778L43 41z"/>
<path style="fill:#a3cad9; stroke:none;" d="M40 42L40 45L40.6944 44.25L40.6944 43.1944L40.6944 42.75L40 42z"/>
<path style="fill:#3ac7ff; stroke:none;" d="M41 42L41 44L43 44L43 42L41 42z"/>
<path style="fill:#3893c2; stroke:none;" d="M41 44L40 46L42 46L42 44L41 44z"/>
<path style="fill:#9cb8cf; stroke:none;" d="M42 44L43 45L42 44z"/>
<path style="fill:#929495; stroke:none;" d="M10 45L11 46L10 45z"/>
<path style="fill:#aaaeaf; stroke:none;" d="M12 45L13 46L12 45z"/>
<path style="fill:#3c4347; stroke:none;" d="M13.6667 45.3333L14 45.6667L14.3333 45.6667L14.3333 45.3333L13.6667 45.3333z"/>
<path style="fill:#b4b8b9; stroke:none;" d="M16 45L17 46L16 45z"/>
<path style="fill:#3a4145; stroke:none;" d="M17 45L17.7222 45.7222L18.25 45.75L20 46L19.2778 45.2778L18.75 45.25L17 45z"/>
<path style="fill:#e8f8ff; stroke:none;" d="M20.6667 45.3333L21 45.6667L21.3333 45.6667L21 45.3333L20.6667 45.3333z"/>
<path style="fill:#aebdc3; stroke:none;" d="M22 45L23 46L22 45z"/>
<path style="fill:#e7f8ff; stroke:none;" d="M25 45L25.7222 45.7222L26.25 45.75L28 46L27.2778 45.2778L26.75 45.25L25 45z"/>
<path style="fill:#77858b; stroke:none;" d="M32 45L33 46L32 45z"/>
<path style="fill:#e0f6ff; stroke:none;" d="M33.6667 45.3333L34 45.6667L34.3333 45.6667L34 45.3333L33.6667 45.3333z"/>
<path style="fill:#afc3cb; stroke:none;" d="M35 45L36 46L35 45z"/>
<path style="fill:#e1edf3; stroke:none;" d="M39 45L40 46L39 45z"/>
<path style="fill:#9be0fb; stroke:none;" d="M52 45L52.7222 45.7222L53.25 45.75L55 46L54.2778 45.2778L53.75 45.25L52 45z"/>
<path style="fill:#333535; stroke:none;" d="M55 45L56 46L55 45z"/>
<path style="fill:#679aaf; stroke:none;" d="M56 45L57 46L56 45z"/>
<path style="fill:#4b656f; stroke:none;" d="M57 45L57 53L57.7222 52.2222L57.75 51.6944L57.9444 50.8889L58 49L57.9722 48.0278L57.9444 47.1111L57.75 46.3056L57.7222 45.7778L57 45z"/>
<path style="fill:#243f4e; stroke:none;" d="M60.3333 45.6667L60.3333 46.3333L60.6667 46.3333L60.6667 46L60.3333 45.6667z"/>
<path style="fill:#cdf1ff; stroke:none;" d="M61 45L61.7222 45.7222L62.25 45.75L64 46L63.2778 45.2778L62.75 45.25L61 45z"/>
<path style="fill:#c7efff; stroke:none;" d="M67 45L67.7222 45.7222L68.25 45.75L70 46L69.2778 45.2778L68.75 45.25L67 45z"/>
<path style="fill:#64777f; stroke:none;" d="M70 45L71 46L70 45z"/>
<path style="fill:#516066; stroke:none;" d="M72 45L73 46L72 45z"/>
<path style="fill:#bbe1f2; stroke:none;" d="M73 45L73.7222 45.7222L74.25 45.75L76 46L76 48.0556L76 49.0556L76.0833 51L76.2222 51.9444L76.4167 52.9444L77 55L77.7222 54.2222L77.75 53.6944L77.9167 52.8889L77.8056 51L77.6111 49.0556L77.6667 47.5L78 46L76.5 45.2778L76 45.25L75 45.0556L73 45z"/>
<path style="fill:#f4fc00; stroke:none;" d="M77 45L78 46L77 45z"/>
<path style="fill:#bfedff; stroke:none;" d="M78 45L78.7222 45.7222L79.25 45.75L81 46L80.2778 45.2778L79.75 45.25L78 45z"/>
<path style="fill:#5c7985; stroke:none;" d="M81 45L82 46L81 45z"/>
<path style="fill:#5d7b87; stroke:none;" d="M83 45L84 46L83 45z"/>
<path style="fill:#bfecff; stroke:none;" d="M84 45L84.7222 45.7222L85.25 45.75L87 46L86.2778 45.2778L85.75 45.25L84 45z"/>
<path style="fill:#142127; stroke:none;" d="M87.6667 45.3333L88 45.6667L88.3333 45.6667L88 45.3333L87.6667 45.3333z"/>
<path style="fill:#bcecff; stroke:none;" d="M89.6667 45.3333L89.6667 45.6667L90.3333 45.6667L90 45.3333L89.6667 45.3333z"/>
<path style="fill:#b9bfc1; stroke:none;" d="M91 45L92 46L91 45z"/>
<path style="fill:#84989f; stroke:none;" d="M94 45L95 46L94 45z"/>
<path style="fill:#90defd; stroke:none;" d="M95.6667 45.3333L96 45.6667L96.3333 45.6667L96 45.3333L95.6667 45.3333z"/>
<path style="fill:#7ea9bb; stroke:none;" d="M97 45L98 46L97 45z"/>
<path style="fill:#4f7483; stroke:none;" d="M98 45L99 46L98 45z"/>
<path style="fill:#9dc4d7; stroke:none;" d="M99 45L100 46L99 45z"/>
<path style="fill:#365364; stroke:none;" d="M7.33333 46.6667L7.33333 47.3333L7.66667 47.3333L7.66667 47L7.33333 46.6667z"/>
<path style="fill:#31c5ff; stroke:none;" d="M8 46L8.58333 48.0556L8.77778 49.0556L8.91667 50L9.08333 52L9.22222 53L9.58333 55L9.69444 56.9444L9.55556 57.9444L9 60L13 60L12.9167 58.5L12.7778 57.9444L12.6111 57L12.25 55.5L12 54L14 54L14 51L12.5 51.1667L12.1667 50.6667L12 50L12 48L14 49L15 49L14.6667 47.2778L14.2778 46.6667L13.6667 46.3333L12.8889 46.1111L11.0556 46L10.0556 46L8 46z"/>
<path style="fill:#acd0e5; stroke:none;" d="M15.3333 46.6667L15.3333 47L15.6667 47.3333L15.6667 47L15.3333 46.6667z"/>
<path style="fill:#31c5ff; stroke:none;" d="M16 46L16.5833 48.0556L16.9167 50L16.9722 51L17.0833 53L17.3611 55L17.5278 56L17.5556 56.9444L17.5 57.9444L17 60L24 60L24 56L22.9167 56.75L21.7778 57.8056L21.4167 58.25L20 59L20.4722 57.5L20.3611 57L20.3333 56L20 54L22 54L22 51L20.5 51.1667L20.1667 50.6667L20 50L20 48L22 49L23 49L22.6667 47.2778L22.2778 46.6667L21.6667 46.3333L20.8889 46.1111L19.0556 46L18.0556 46L16 46z"/>
<path style="fill:#acd1e0; stroke:none;" d="M23.3333 46.6667L23.3333 47.3333L23.6667 47.3333L23.6667 46.6667L23.3333 46.6667z"/>
<path style="fill:#31c5ff; stroke:none;" d="M24 46L24.6667 47.5L24.9722 48.0556L25.6944 50L25.8889 51L25.9722 52L26 53L26 55L26 56.9444L26 60L30 60L29.7222 58.5L29.1667 56.9444L28.8333 56L28.4722 55L28.0833 53L28.0278 52L28 50L28 49.0556L28 46L24 46z"/>
<path style="fill:#a2deff; stroke:none;" d="M28 46L29 47L28 46z"/>
<path style="fill:#2f3031; stroke:none;" d="M29 46L30 47L29 46z"/>
<path style="fill:#46687d; stroke:none;" d="M31.3333 46.6667L31.3333 47.3333L31.6667 47.3333L31.6667 46.6667L31.3333 46.6667z"/>
<path style="fill:#32c5ff; stroke:none;" d="M32 46L32.5833 48.0556L32.7778 49.0556L32.9167 50L33 51.9444L33 52.9444L33 55L31 55L30 56L30.2778 57.5L30.8611 59L31.0278 59.5L32 61L35 61L36 60L36 55L36 53L35.9444 51.0278L35.8333 49.2222L35.7778 48.4444L35.8333 47.6667L36 46L32 46z"/>
<path style="fill:#a1b4be; stroke:none;" d="M36.3333 46.6667L36.3333 47.3333L36.6667 47.3333L36.6667 47L36.3333 46.6667z"/>
<path style="fill:#f6070f; stroke:none;" d="M38 46L39 47L38 46z"/>
<path style="fill:#32c5ff; stroke:none;" d="M39 46L38.5833 47.5L38.2222 49.0556L38.0833 50L38 52L38.0833 54L38.4722 56L39.1944 57.9444L39.5 58.5L40 60L45 60L45.25 58.5L45.6111 56.9444L45.9167 55L45.9444 54L45.9167 53L45.5833 51L44.8889 49.0278L44.3611 48.1111L42.8889 46.7222L42.0278 46.3333L40.5 46.0278L39 46z"/>
<path style="fill:#04435d; stroke:none;" d="M43 46L44 47L43 46z"/>
<path style="fill:#9bdeff; stroke:none;" d="M51 46L52 47L51 46z"/>
<path style="fill:#32c5ff; stroke:none;" d="M54 60L53.9167 58.5L53.7778 57.9444L53.3889 56L53.0833 54L53 52L53.1111 50.0278L53.2778 49.1111L53.6667 48.3056L53.8611 47.7778L55 47L54.2222 46.3056L52.9167 46.3889L51.3333 47.3333L50.7222 48.1111L50.3333 49.0278L50.0278 51L50.0278 53L50.0833 54L50.5 56L51.4444 57.8889L52.1944 58.6944L52.5833 59.2222L54 60z"/>
<path style="fill:#60cefe; stroke:none;" d="M55 46L55 47L56 49L56.7222 48.2778L56.75 47.75L57 46L55 46z"/>
<path style="fill:#32c5ff; stroke:none;" d="M61 46L60.9167 48.0556L60.6111 50L60.2222 52L60.0833 53L59.9167 55L59.7778 56L59.3889 57.9444L59.25 58.5L59 60L62 60L61.75 58.5556L61.4167 57.4444L61 56L62.1389 56.7778L62.3333 57.25L62.8889 58.5278L63 60L67 60L66.9167 58.5L66.5833 56.9444L66 55L65.3333 53L65 52L64.4167 50L64.2222 49.0556L64.0278 47.5L64 46L61 46z"/>
<path style="fill:#8dafc5; stroke:none;" d="M66.3333 46.6667L66.3333 47.3333L66.6667 47.3333L66.6667 46.6667L66.3333 46.6667z"/>
<path style="fill:#32c5ff; stroke:none;" d="M67 46L67.5 47.5L67.8056 48.0556L68.1944 49.0556L68.6111 50L69.3889 52L70.1667 54L70.5278 54.9444L70.9167 56.5L71 58L71.75 57.2222L71.8333 56.6944L72.1667 55.8889L72.3611 54.9722L72.6111 54.0556L72.9167 52.5L73 51L73.7222 52.5L73.9444 54.0556L73.9722 55L74.0278 56.9722L74.1111 57.8889L74.3333 58.6667L74.6667 59.2778L75.2778 59.6667L77 60L76.9167 58.5L76.7778 57.9444L76.6111 56.9444L76.3889 56L76.0833 54L76.0278 53L76 51L76 49.0556L76 46L73 46L73 51L71 51L70.9722 49.5L70.6667 48.0556L69.7222 46.7222L68.4722 46.1111L67 46z"/>
<path style="fill:#e84d74; stroke:none;" d="M70 46L71 47L70 46z"/>
<path style="fill:#003952; stroke:none;" d="M72 46L73 47L72 46z"/>
<path style="fill:#32c5ff; stroke:none;" d="M78 46L78.5833 48.0556L78.7778 49.0556L78.9167 50L79 52L79 54L79 60L83 60L82.75 58.5L82.6111 57.9444L82.2222 56L82.0833 55L81.9167 53L81.6944 51L81.6111 50L81.6111 49.0556L81.7778 47.5L82 46L78 46z"/>
<path style="fill:#b9d0df; stroke:none;" d="M82 46L82 49L82.6944 48.25L82.6944 47.1944L82.6944 46.75L82 46z"/>
<path style="fill:#32c5ff; stroke:none;" d="M83 46L83.75 47.5L84.2222 48.0556L84.8611 49.0556L85.5278 50L86.5278 52L87.1667 54L87.4444 55L88.2222 56.9444L88.7778 57.9444L89 58.5L90 60L90.7222 59.2222L90.75 58.6944L90.9444 57.8889L90.9722 56.9722L91 55L91 54.0556L91 51L89.7778 50.2222L89.4167 49.6944L88.7778 48.9167L87.5278 47.3333L85.9722 46.3333L85.0278 46.1111L83 46z"/>
<path style="fill:#98cce5; stroke:none;" d="M87 46L88 47L87 46z"/>
<path style="fill:#a9f412; stroke:none;" d="M88 46L89 47L88 46z"/>
<path style="fill:#2bc4ff; stroke:none;" d="M89 46L89 47L91 48L91 46L89 46z"/>
<path style="fill:#fc0d19; stroke:none;" d="M91.3333 46.6667L91.3333 47.3333L91.6667 47.3333L91.6667 46.6667L91.3333 46.6667z"/>
<path style="fill:#93a9b1; stroke:none;" d="M93 46L94 47L93 46z"/>
<path style="fill:#32c5ff; stroke:none;" d="M94 46L93 47L93 50.0556L93 51L93.0833 53L93.4167 55L94.1111 56.9722L94.6389 57.8889L96.0556 59.2778L96.9722 59.6667L99 60L99.7222 58.5L99.75 57.9444L99.9444 56.9444L99.9722 56L100 55.0556L100 54.0556L100 52L98.5 52.25L97 52.6111L96.5 52.75L95 53L95.25 51.5L95.6111 50L95.7778 49.0556L95.9167 48.5L96 47L98 48L99 48L98.6389 46.8611L98.2778 46.6667L97.6667 46.2778L96.9444 46.1111L95.5 46L94 46z"/>
<path style="fill:#269ece; stroke:none;" d="M99.3333 46.6667L99.3333 47.3333L99.6667 47.3333L99.6667 46.6667L99.3333 46.6667z"/>
<path style="fill:#3a9ccb; stroke:none;" d="M8 47L8 51L8.72222 50.2222L8.72222 49.7222L8.88889 49L8.72222 47.7778L8 47z"/>
<path style="fill:#2d9acc; stroke:none;" d="M16 47L14.6389 48.5L13.9167 50L13.6389 50.5L14 52L15 52L16 50L17 51L16.9444 49.0556L16.75 48.25L16.7222 47.7778L16 47z"/>
<path style="fill:#3082af; stroke:none;" d="M24 47L24 50L24.6944 49.25L24.6944 48.1944L24.6944 47.75L24 47z"/>
<path style="fill:#cf0016; stroke:none;" d="M28 47L29 48L28 47z"/>
<path style="fill:#3796c5; stroke:none;" d="M32 47L32 51L32.7222 50.2222L32.7222 49.7222L32.8889 49L32.7222 47.7778L32 47z"/>
<path style="fill:#9fddff; stroke:none;" d="M38 47L39 48L38 47z"/>
<path style="fill:#3387b4; stroke:none;" d="M41 47L41 50L41.6944 49.25L41.6944 48.1944L41.6944 47.75L41 47z"/>
<path style="fill:#325c6f; stroke:none;" d="M44 47L45 48L44 47z"/>
<path style="fill:#e60e1f; stroke:none;" d="M50 47L51 48L50 47z"/>
<path style="fill:#297ba7; stroke:none;" d="M53 47L53.1111 48.4722L53.6667 49.7222L54.6111 50.6389L56 51L55.7222 49.5278L55.1111 48.2778L54.2222 47.3611L53 47z"/>
<path style="fill:#2ea2d6; stroke:none;" d="M55.3333 47.6667L55.3333 48L55.6667 48.3333L55.6667 47.6667L55.3333 47.6667z"/>
<path style="fill:#49555b; stroke:none;" d="M59 47L59 51L59.7222 50.2222L59.7222 49.7222L59.8889 49L59.7222 47.7778L59 47z"/>
<path style="fill:#60b3dc; stroke:none;" d="M60 47L60 51L60.7222 50.2222L60.7222 49.7222L60.8889 49L60.7222 47.7778L60 47z"/>
<path style="fill:#c7f000; stroke:none;" d="M64 47L65 48L64 47z"/>
<path style="fill:#3082b0; stroke:none;" d="M67 47L66 48L66 50L67.1389 49.6389L67.3056 49.3056L67.6667 48.7778L67.6944 47.75L67 47z"/>
<path style="fill:#afdef7; stroke:none;" d="M71.3333 47.6667L71.3333 48.3333L71.6667 48.3333L71.6667 47.6667L71.3333 47.6667z"/>
<path style="fill:#6cc2eb; stroke:none;" d="M72 47L71.5833 48.4444L71.25 49.5556L71 51L72.1389 50.6389L72.3333 50.2778L72.8333 49L72.7222 48.2778L72.7222 47.7778L72 47z"/>
<path style="fill:#47addc; stroke:none;" d="M77 47L77.5833 49.0556L77.7778 50.0556L77.9167 51L78 53L78 54L78 54.9444L78 58L78.7222 57.2222L78.75 56.6944L78.9444 55.8889L78.9722 54.9722L79 54L79 52L78.9722 50.0278L78.8889 49.1111L78.7222 48.3333L78.1389 47.3611L77 47z"/>
<path style="fill:#2f8dbd; stroke:none;" d="M83 47L83.1111 48.3889L83.6667 49.3333L83.8611 49.6389L85 50L84.3333 48.25L84.1389 47.7222L83 47z"/>
<path style="fill:#328cba; stroke:none;" d="M88 47L88.25 48.4444L88.5833 49.5556L89 51L89.7222 50.2222L89.7222 49.7222L89.8333 49L89.3333 47.7222L89.1389 47.3611L88 47z"/>
<path style="fill:#2377a4; stroke:none;" d="M96 47L96 50L98 50L98 47L96 47z"/>
<path style="fill:#e11a3c; stroke:none;" d="M7.33333 48.6667L7.33333 49L7.66667 49.3333L7.66667 49L7.33333 48.6667z"/>
<path style="fill:#2c7daa; stroke:none;" d="M12 48L12 51L13.1389 50.2778L13.3333 49.75L14 48L12 48z"/>
<path style="fill:#247fae; stroke:none;" d="M20 48L20 51L21.1389 50.2778L21.3333 49.75L22 48L20 48z"/>
<path style="fill:#63b4dc; stroke:none;" d="M23.3333 48.6667L23.3333 49L23.6667 49.3333L23.6667 48.6667L23.3333 48.6667z"/>
<path style="fill:#40b6ea; stroke:none;" d="M25 48L24.6667 49.5L24.6111 51.0556L24.8056 53L24.9167 54L24.9722 54.9444L25 55.9444L25 58L25.7222 57.2222L25.75 56.6944L25.9444 55.8889L25.9722 54.9722L26 53L25.9722 51.0278L25.9444 50.1111L25.75 49.3056L25.7222 48.7778L25 48z"/>
<path style="fill:#0c2531; stroke:none;" d="M28.3333 48.6667L28.3333 49.3333L28.6667 49.3333L28.6667 48.6667L28.3333 48.6667z"/>
<path style="fill:#a3a7a9; stroke:none;" d="M30.3333 48.6667L30.3333 49.3333L30.6667 49.3333L30.6667 48.6667L30.3333 48.6667z"/>
<path style="fill:#749ebd; stroke:none;" d="M31.3333 48.6667L31.3333 49.3333L31.6667 49.3333L31.6667 48.6667L31.3333 48.6667z"/>
<path style="fill:#0d90c3; stroke:none;" d="M35 48L36 49L35 48z"/>
<path style="fill:#182328; stroke:none;" d="M36.6667 48.3333L37 48.6667L37.3333 48.6667L37 48.3333L36.6667 48.3333z"/>
<path style="fill:#326983; stroke:none;" d="M45 48L45 51L45.6944 50.25L45.6944 49.1944L45.6944 48.75L45 48z"/>
<path style="fill:#72d2fd; stroke:none;" d="M64 48L64 51L64.6944 50.25L64.6944 49.1944L64.6944 48.75L64 48z"/>
<path style="fill:#eef4f7; stroke:none;" d="M65 48L66 49L65 48z"/>
<path style="fill:#448bb3; stroke:none;" d="M77.3333 48.6667L77.3333 49L77.6667 49.3333L77.6667 48.6667L77.3333 48.6667z"/>
<path style="fill:#86d6ff; stroke:none;" d="M81 48L81 51L81.6944 50.25L81.6944 49.1944L81.6944 48.75L81 48z"/>
<path style="fill:#72d1fc; stroke:none;" d="M90 48L90 51L90.6944 50.25L90.6944 49.1944L90.6944 48.75L90 48z"/>
<path style="fill:#0e1011; stroke:none;" d="M91 48L91 52L91.7222 51.2222L91.8889 50L91.7222 49.2778L91.7222 48.7778L91 48z"/>
<path style="fill:#81b0c2; stroke:none;" d="M92 48L92 51L92.6944 50.25L92.6944 49.1944L92.6944 48.75L92 48z"/>
<path style="fill:#308fbf; stroke:none;" d="M98 48L97.6944 49.4722L97.8889 50.7222L98.6389 51.6389L100 52L99.5556 50.5278L98.9722 49.25L98.8056 48.7778L98 48z"/>
<path style="fill:#4ec9ff; stroke:none;" d="M99 48L99 51L99.6944 50.25L99.6944 49.1944L99.6944 48.75L99 48z"/>
<path style="fill:#7d8081; stroke:none;" d="M100 48L101 49L100 48z"/>
<path style="fill:#2d9bce; stroke:none;" d="M22 49L21.5278 50.5L21.6389 51L21.6667 52L22 54L20 54L20 57L21.0278 56.3333L21.8056 55.6667L23 55L23 52.9444L22.9722 51.9722L22.9444 51.1111L22.75 50.3056L22.7222 49.7778L22 49z"/>
<path style="fill:#777a7b; stroke:none;" d="M36 49L37 50L36 49z"/>
<path style="fill:#dc0e21; stroke:none;" d="M37.3333 49.6667L37.3333 50.3333L37.6667 50.3333L37.6667 49.6667L37.3333 49.6667z"/>
<path style="fill:#9da5a9; stroke:none;" d="M49 49L50 50L49 49z"/>
<path style="fill:#40b6e8; stroke:none;" d="M56.3333 49.6667L56.3333 50.3333L56.6667 50.3333L56.6667 50L56.3333 49.6667z"/>
<path style="fill:#000000; stroke:none;" d="M65 49L65.0833 50.5L65.2222 51.0556L65.3889 52.0556L65.7778 53.9444L65.9167 54.5L66 56L66.7222 55.2222L66.75 54.6944L66.9167 53.8889L66.8889 52.9722L66.5556 51.1111L66.1389 50.3056L65.9722 49.7778L65 49z"/>
<path style="fill:#33b1e7; stroke:none;" d="M68 49L68 60L72 60L71.75 58.5L71.3611 56.9444L71.1389 56L70.8333 55L70.5556 54L70.1667 53L69.4167 51.1111L69 50.3056L68.8056 49.7778L68 49z"/>
<path style="fill:#e4f2f9; stroke:none;" d="M82.3333 49.6667L82.3333 50.3333L82.6667 50.3333L82.6667 49.6667L82.3333 49.6667z"/>
<path style="fill:#2eade4; stroke:none;" d="M83 50L83.6111 52.0556L83.8333 53L84.1667 53.9444L84.25 54.5L85 56L85.8056 55.2222L85.9722 54.6944L86.5 52.9722L86.5 51.0556L86 49L85 49L83 50z"/>
<path style="fill:#aec7d1; stroke:none;" d="M100.333 49.6667L100.333 50.3333L100.667 50.3333L100.667 49.6667L100.333 49.6667z"/>
<path style="fill:#72777a; stroke:none;" d="M7.33333 50.6667L7.33333 51.3333L7.66667 51.3333L7.66667 51L7.33333 50.6667z"/>
<path style="fill:#bcdcec; stroke:none;" d="M15 50L16 51L15 50z"/>
<path style="fill:#a7cedf; stroke:none;" d="M23 50L24 51L23 50z"/>
<path style="fill:#d71731; stroke:none;" d="M28 50L28 53L28.6944 52.25L28.6944 51.1944L28.6944 50.75L28 50z"/>
<path style="fill:#919495; stroke:none;" d="M31 50L31 54L31.7222 53.2222L31.7222 52.7222L31.8889 52L31.7222 50.7778L31 50z"/>
<path style="fill:#a2d6f4; stroke:none;" d="M36 50L36 53.0556L36 54L36.0278 54.9722L36.2778 56.6667L36.8611 57.6389L38 58L37.4167 55.9444L37.0833 54L36.9444 52.1111L36.75 51.3056L36.7222 50.7778L36 50z"/>
<path style="fill:#90cdeb; stroke:none;" d="M41 50L41 58L41.7222 57.2222L41.75 56.6944L41.9444 55.8889L42 54L41.9722 53.0278L41.9444 52.1111L41.75 51.3056L41.7222 50.7778L41 50z"/>
<path style="fill:#f61d2f; stroke:none;" d="M49 50L50 51L49 50z"/>
<path style="fill:#ea1527; stroke:none;" d="M53 50L53 53L53.6944 52.25L53.6944 51.1944L53.6944 50.75L53 50z"/>
<path style="fill:#cacecf; stroke:none;" d="M66 50L67 51L66 50z"/>
<path style="fill:#6698b3; stroke:none;" d="M67 50L67 57L67.7222 56.2222L67.75 55.6944L67.9444 54.8889L67.9722 53.0278L67.9444 52.1111L67.75 51.3056L67.7222 50.7778L67 50z"/>
<path style="fill:#5ccdff; stroke:none;" d="M95 50L95 53L95.6944 52.25L95.6944 51.1944L95.6944 50.75L95 50z"/>
<path style="fill:#bedfee; stroke:none;" d="M96 50L97 51L96 50z"/>
<path style="fill:#85bcdd; stroke:none;" d="M8 51L9 52L8 51z"/>
<path style="fill:#a4e3fe; stroke:none;" d="M12 51L13 52L12 51z"/>
<path style="fill:#0f1111; stroke:none;" d="M15 51L15 56L15.7222 55.2222L15.75 54.6944L15.9167 53.9167L15.75 52.3056L15.7222 51.7778L15 51z"/>
<path style="fill:#3481a9; stroke:none;" d="M16 51L16 55L16.7222 54.2222L16.8889 53L16.7222 52.2778L16.7222 51.7778L16 51z"/>
<path style="fill:#b0e3fe; stroke:none;" d="M20 51L21 52L20 51z"/>
<path style="fill:#000000; stroke:none;" d="M23 51L23 55L23.9444 54.2222L24.0278 53.7222L24.2778 53L24.0556 51.7778L23 51z"/>
<path style="fill:#97c3dd; stroke:none;" d="M24 51L25 52L24 51z"/>
<path style="fill:#64b8e1; stroke:none;" d="M32 51L31.75 52.4444L31.4167 53.5556L31 55L32.1389 54.6389L32.3333 54.2778L32.8333 53L32.7222 52.2778L32.7222 51.7778L32 51z"/>
<path style="fill:#5fbeea; stroke:none;" d="M37.3333 51.6667L37.3333 52L37.6667 52.3333L37.6667 51.6667L37.3333 51.6667z"/>
<path style="fill:#48abd9; stroke:none;" d="M42 51L42 53.0556L41.9722 54.0556L41.9167 55L41.5833 56.9444L41 59L42.1389 58.6389L42.7222 57.6667L42.8889 56.8889L43 55L42.9722 54.0278L42.75 52.3056L42.7222 51.7778L42 51z"/>
<path style="fill:#6d8a95; stroke:none;" d="M46 51L46 57L46.7222 56.2222L46.75 55.6944L46.9444 54.8889L46.9444 53.1111L46.75 52.3056L46.7222 51.7778L46 51z"/>
<path style="fill:#2a2f32; stroke:none;" d="M48 51L48 58L48.7222 57.2222L48.75 56.6944L48.9444 55.8889L48.9722 54.0278L48.9444 53.1111L48.75 52.3056L48.7222 51.7778L48 51z"/>
<path style="fill:#6bafd4; stroke:none;" d="M49 51L49 58L49.7222 57.2222L49.75 56.6944L49.9444 55.8889L49.9722 54.0278L49.9444 53.1111L49.75 52.3056L49.7222 51.7778L49 51z"/>
<path style="fill:#8cc2d7; stroke:none;" d="M54.3333 51.6667L54.3333 52.3333L54.6667 52.3333L54.6667 52L54.3333 51.6667z"/>
<path style="fill:#5b90b4; stroke:none;" d="M55.6667 51.3333L56 51.6667L56.3333 51.6667L56 51.3333L55.6667 51.3333z"/>
<path style="fill:#22495d; stroke:none;" d="M59 51L59 57L59.7222 56.2222L59.75 55.6944L59.9444 54.8889L59.9444 53.1111L59.75 52.3056L59.7222 51.7778L59 51z"/>
<path style="fill:#3da5d5; stroke:none;" d="M61 51L61.0278 52.4722L61.2778 53.7222L61.8611 54.6389L63 55L62.5556 53.5278L61.9722 52.25L61.8056 51.7778L61 51z"/>
<path style="fill:#3eb9ee; stroke:none;" d="M73 51L72.75 52.5L72.3889 54.0556L72.1667 56L72.25 56.9444L72.4167 57.9444L73 60L73.7222 59.2222L73.75 58.6944L73.9444 57.8889L73.9722 56.9722L74 55L73.9444 53.1111L73.75 52.3056L73.7222 51.7778L73 51z"/>
<path style="fill:#3b5b6d; stroke:none;" d="M82 51L82 53L84 53L84 51L82 51z"/>
<path style="fill:#5fbae7; stroke:none;" d="M92 51L92 54L92.6944 53.25L92.6944 52.1944L92.6944 51.75L92 51z"/>
<path style="fill:#bec4c9; stroke:none;" d="M96 51L96 53L98 52L98 51L96 51z"/>
<path style="fill:#194f6d; stroke:none;" d="M8 52L9 53L8 52z"/>
<path style="fill:#8bd8fe; stroke:none;" d="M14 52L14 56L14.7222 55.2222L14.7222 54.7222L14.8889 54L14.7222 52.7778L14 52z"/>
<path style="fill:#48a4d1; stroke:none;" d="M55.6667 52.3333L56 52.6667L56.3333 52.6667L56 52.3333L55.6667 52.3333z"/>
<path style="fill:#e40513; stroke:none;" d="M65 52L66 53L65 52z"/>
<path style="fill:#b1e1ff; stroke:none;" d="M91 52L91 58L91.7222 57.2222L91.75 56.6944L91.9444 55.8889L91.9444 54.1111L91.75 53.3056L91.7222 52.7778L91 52z"/>
<path style="fill:#7cd5fa; stroke:none;" d="M97 52L98 53L97 52z"/>
<path style="fill:#8ec2de; stroke:none;" d="M100 52L100 59L100.722 58.2222L100.75 57.6944L100.944 56.8889L100.972 55.9722L100.944 54.1111L100.75 53.3056L100.722 52.7778L100 52z"/>
<path style="fill:#ed2846; stroke:none;" d="M8 53L8 56L8.69444 55.25L8.69444 54.1944L8.69444 53.75L8 53z"/>
<path style="fill:#cefc12; stroke:none;" d="M24 53L25 54L24 53z"/>
<path style="fill:#367597; stroke:none;" d="M28 53L29 54L28 53z"/>
<path style="fill:#292d2f; stroke:none;" d="M29 53L29 56L29.6944 55.25L29.6944 54.1944L29.6944 53.75L29 53z"/>
<path style="fill:#45a1ce; stroke:none;" d="M37 53L37.0278 54.4722L37.2778 55.7222L37.8611 56.6389L39 57L38.5556 55.5278L37.9722 54.25L37.8056 53.7778L37 53z"/>
<path style="fill:#8bd2f1; stroke:none;" d="M53 53L54 54L53 53z"/>
<path style="fill:#32c5ff; stroke:none;" d="M54 53L54.5833 55.0556L54.9167 56.9444L54.9722 57.9444L55 60L57 60L57 53L54 53z"/>
<path style="fill:#86d2fc; stroke:none;" d="M57 53L58 54L57 53z"/>
<path style="fill:#7f8385; stroke:none;" d="M58 53L59 54L58 53z"/>
<path style="fill:#578da9; stroke:none;" d="M65 53L66 54L65 53z"/>
<path style="fill:#72cff9; stroke:none;" d="M76 53L76 57L76.7222 56.2222L76.7222 55.7222L76.8889 55L76.7222 53.7778L76 53z"/>
<path style="fill:#8396a1; stroke:none;" d="M82 53L83 54L82 53z"/>
<path style="fill:#767b7e; stroke:none;" d="M83 53L83 60L83.7222 59.2222L83.75 58.6944L83.9444 57.8889L83.9722 56.9722L83.9444 55.1111L83.75 54.3056L83.7222 53.7778L83 53z"/>
<path style="fill:#2276a4; stroke:none;" d="M86 53L86.0833 54.5L86.2222 55.0556L86.4167 56.0556L87.0278 58L87.4167 58.9722L88.4444 60.6667L89.5833 61.6389L91 62L90.6667 60.5L90.3611 59.9444L89.9167 58.9444L89.3611 58L88.25 56.0278L87.2222 54.3056L87 53.7778L86 53z"/>
<path style="fill:#47b0e0; stroke:none;" d="M9 54L9 59L9.72222 58.2222L9.75 57.6944L9.91667 56.0833L9.75 55.3056L9.72222 54.7778L9 54z"/>
<path style="fill:#2a9fd2; stroke:none;" d="M12 54L12 57L12.9722 56.2778L13.1667 55.75L14 54L12 54z"/>
<path style="fill:#f20c19; stroke:none;" d="M24.3333 54.6667L24.3333 55.3333L24.6667 55.3333L24.6667 55L24.3333 54.6667z"/>
<path style="fill:#6bd1ff; stroke:none;" d="M28.3333 54.6667L28.3333 55.3333L28.6667 55.3333L28.6667 54.6667L28.3333 54.6667z"/>
<path style="fill:#4b90af; stroke:none;" d="M30.3333 54.6667L30.3333 55.3333L30.6667 55.3333L30.6667 54.6667L30.3333 54.6667z"/>
<path style="fill:#37a2d4; stroke:none;" d="M53 54L53.0833 55.5L53.1944 56.0556L53.3889 57.9444L53.3333 59.5L53 61L57 61L56.3333 59.9167L56.0278 59.5278L55.3056 57.9167L55.1111 57.0278L55 55.5L55 54L53 54z"/>
<path style="fill:#004f70; stroke:none;" d="M57.3333 54.6667L57.3333 55.3333L57.6667 55.3333L57.6667 55L57.3333 54.6667z"/>
<path style="fill:#000000; stroke:none;" d="M58 54L58 57L58.6944 56.25L58.6944 55.1944L58.6944 54.75L58 54z"/>
<path style="fill:#134f69; stroke:none;" d="M82.3333 54.6667L82.3333 55.3333L82.6667 55.3333L82.6667 54.6667L82.3333 54.6667z"/>
<path style="fill:#549cc5; stroke:none;" d="M92 54L92 58L93.1111 57.2222L93.2222 56.7222L93.4444 56L93.1111 54.7778L92 54z"/>
<path style="fill:#46a7d4; stroke:none;" d="M96 54L96 58L98 58L98 54L96 54z"/>
<path style="fill:#3181af; stroke:none;" d="M13 55L13 58L13.6944 57.25L13.6944 56.1944L13.6944 55.75L13 55z"/>
<path style="fill:#9ab4c3; stroke:none;" d="M16 55L16 61L16.7222 60.2222L16.75 59.6944L16.9444 58.8889L16.9444 57.1111L16.75 56.3056L16.7222 55.7778L16 55z"/>
<path style="fill:#46b1e2; stroke:none;" d="M17 55L17 59L17.7222 58.2222L17.8889 57L17.7222 56.2778L17.7222 55.7778L17 55z"/>
<path style="fill:#3181ae; stroke:none;" d="M21 55L21 58L21.6944 57.25L21.6944 56.1944L21.6944 55.75L21 55z"/>
<path style="fill:#7ab0c5; stroke:none;" d="M22.6667 55.3333L23 55.6667L23.3333 55.6667L23 55.3333L22.6667 55.3333z"/>
<path style="fill:#030303; stroke:none;" d="M77 55L77 58L77.6944 57.25L77.6944 56.8056L77.6944 55.75L77 55z"/>
<path style="fill:#73b7db; stroke:none;" d="M84 55L84 58L84.6944 57.25L84.6944 56.8056L84.6944 55.75L84 55z"/>
<path style="fill:#0e394f; stroke:none;" d="M8.33333 56.6667L8.33333 57L8.66667 57.3333L8.66667 56.6667L8.33333 56.6667z"/>
<path style="fill:#d2ebfc; stroke:none;" d="M14 56L15 57L14 56z"/>
<path style="fill:#9ad1eb; stroke:none;" d="M22.3333 56.6667L22.3333 57.3333L22.6667 57.3333L22.6667 57L22.3333 56.6667z"/>
<path style="fill:#8698a1; stroke:none;" d="M24 56L25 57L24 56z"/>
<path style="fill:#bcd6e4; stroke:none;" d="M29.3333 56.6667L29.3333 57.3333L29.6667 57.3333L29.6667 57L29.3333 56.6667z"/>
<path style="fill:#2475a4; stroke:none;" d="M50 56L50.0278 57.5L50.3056 59.0556L51.0278 60.9444L51.3333 61.5L52 63L54 62.75L54.5556 62.7222L56 62L55.2778 61.2778L54.75 61.25L53 61L52.6667 59.5L52.3611 58.9722L51.9444 58.0556L51.0556 56.7778L50 56z"/>
<path style="fill:#e74971; stroke:none;" d="M57 56L58 57L57 56z"/>
<path style="fill:#2c9fd3; stroke:none;" d="M61.6667 56.3333L62 56.6667L62.3333 56.6667L62 56.3333L61.6667 56.3333z"/>
<path style="fill:#cf0e29; stroke:none;" d="M66 56L67 57L66 56z"/>
<path style="fill:#df4169; stroke:none;" d="M82.3333 56.6667L82.3333 57.3333L82.6667 57.3333L82.6667 56.6667L82.3333 56.6667z"/>
<path style="fill:#32c5ff; stroke:none;" d="M85 56L85.0278 57.4722L85.2778 58.7222L85.8611 59.6389L87 60L86.7222 58.5278L86.1389 57.25L85.9722 56.7778L85 56z"/>
<path style="fill:#6cb6da; stroke:none;" d="M86.3333 56.6667L86.3333 57.3333L86.6667 57.3333L86.6667 57L86.3333 56.6667z"/>
<path style="fill:#d3e8f1; stroke:none;" d="M24 57L25 58L24 57z"/>
<path style="fill:#2275a3; stroke:none;" d="M38 57L38.0833 58.5L38.5 60.0278L39.5 61.6667L40.1944 62.2778L41.5278 62.8889L43 63L42.6389 61.75L42.3056 61.3333L41.75 60.5556L40.4167 59.0278L39.6667 58.2778L39.25 57.7778L38 57z"/>
<path style="fill:#3b5c72; stroke:none;" d="M45.3333 57.6667L45.3333 58.3333L45.6667 58.3333L45.6667 58L45.3333 57.6667z"/>
<path style="fill:#4d9dc7; stroke:none;" d="M57 57L58 58L57 57z"/>
<path style="fill:#586a72; stroke:none;" d="M58 57L57.5833 58.4444L57.25 59.5556L57 61L58.1389 60.2222L58.3056 59.7222L58.6667 59L58.6944 57.7778L58 57z"/>
<path style="fill:#f33c5e; stroke:none;" d="M59 57L60 58L59 57z"/>
<path style="fill:#2878a4; stroke:none;" d="M61 57L61 58L63 59L63 57L61 57z"/>
<path style="fill:#a0d9f5; stroke:none;" d="M67 57L67 60L67.6944 59.25L67.6944 58.1944L67.6944 57.75L67 57z"/>
<path style="fill:#2274a2; stroke:none;" d="M93 57L93 61L94 62L99 62L98.6389 60.8333L98.2778 60.5556L97.6667 59.9444L96.0278 58.8056L95.0556 58.1944L94.5 57.75L93 57z"/>
<path style="fill:#38505e; stroke:none;" d="M8 58L8 61L8.69444 60.25L8.69444 59.1944L8.69444 58.75L8 58z"/>
<path style="fill:#62cdfc; stroke:none;" d="M13 58L13 61L13.6944 60.25L13.6944 59.1944L13.6944 58.75L13 58z"/>
<path style="fill:#80ccf1; stroke:none;" d="M20.6667 58.3333L21 58.6667L21.3333 58.6667L21 58.3333L20.6667 58.3333z"/>
<path style="fill:#668697; stroke:none;" d="M24 58L24 61L24.6944 60.25L24.6944 59.1944L24.6944 58.75L24 58z"/>
<path style="fill:#65c4f1; stroke:none;" d="M25.3333 58.6667L25.3333 59.3333L25.6667 59.3333L25.6667 59L25.3333 58.6667z"/>
<path style="fill:#3282ae; stroke:none;" d="M30 58L30 62L31 63L33 62.9444L34 62.75L34.5 62.7222L36 62L35.2222 61.2778L34.75 61.25L33.9444 61.0556L32 61L31.1667 59.25L30.9722 58.7222L30 58z"/>
<path style="fill:#b2b8bd; stroke:none;" d="M36.3333 58.6667L36.3333 59L36.6667 59.3333L36.6667 59L36.3333 58.6667z"/>
<path style="fill:#fa0913; stroke:none;" d="M37.3333 58.6667L37.3333 59.3333L37.6667 59.3333L37.6667 59L37.3333 58.6667z"/>
<path style="fill:#282d30; stroke:none;" d="M49 58L49 61L49.6944 60.25L49.6944 59.1944L49.6944 58.75L49 58z"/>
<path style="fill:#fe4264; stroke:none;" d="M57 58L58 59L57 58z"/>
<path style="fill:#b7dffa; stroke:none;" d="M72 58L72 61L72.6944 60.25L72.6944 59.1944L72.6944 58.75L72 58z"/>
<path style="fill:#77d3fe; stroke:none;" d="M77.3333 58.6667L77.3333 59.3333L77.6667 59.3333L77.6667 58.6667L77.3333 58.6667z"/>
<path style="fill:#a3c0d4; stroke:none;" d="M78 58L77.5833 59.4444L77.25 60.5556L77 62L78.1389 61.2222L78.3056 60.7222L78.6667 60L78.6944 58.7778L78 58z"/>
<path style="fill:#e5395c; stroke:none;" d="M84.3333 58.6667L84.3333 59.3333L84.6667 59.3333L84.6667 59L84.3333 58.6667z"/>
<path style="fill:#5ecfff; stroke:none;" d="M91.3333 58.6667L91.3333 59.3333L91.6667 59.3333L91.6667 58.6667L91.3333 58.6667z"/>
<path style="fill:#c7d7e0; stroke:none;" d="M92.3333 58.6667L92.3333 59.3333L92.6667 59.3333L92.6667 59L92.3333 58.6667z"/>
<path style="fill:#767e84; stroke:none;" d="M45 59L43 61L43 62L44.3889 61.6389L44.6944 61.3056L45.2778 60.7778L45.6111 59.75L45 59z"/>
<path style="fill:#cfd9de; stroke:none;" d="M62 59L61.2778 60.4444L61.25 61L61 63L61.9722 62.2222L62.1111 61.7222L62.5 61L62.6389 59.7778L62 59z"/>
<path style="fill:#8fc5e2; stroke:none;" d="M87 59L88 60L87 59z"/>
<path style="fill:#5884a8; stroke:none;" d="M99.3333 59.6667L99.3333 60.3333L99.6667 60.3333L99.6667 59.6667L99.3333 59.6667z"/>
<path style="fill:#bec3c7; stroke:none;" d="M100.333 59.6667L100.333 60.3333L100.667 60.3333L100.667 59.6667L100.333 59.6667z"/>
<path style="fill:#2b9ed0; stroke:none;" d="M9 60L9.77778 60.7222L10.25 60.75L11.0556 60.9444L13 61L12.2222 60.2778L11.75 60.25L10.9444 60.0556L9 60z"/>
<path style="fill:#359bcb; stroke:none;" d="M17 60L17.7778 60.7222L18.3056 60.75L19.1111 60.9444L20.0278 60.9722L20.9444 61L21.9444 61L24 61L23.2222 60.2778L22.6944 60.25L21.8889 60.0556L20.9722 60.0278L20.0556 60L19.0556 60L17 60z"/>
<path style="fill:#2a96c8; stroke:none;" d="M25 60L25.7778 60.7222L26.3056 60.75L27.0556 60.9444L27.9722 60.9722L30 61L29.2222 60.2778L28.6944 60.25L27.9444 60.0556L27.0278 60.0278L25 60z"/>
<path style="fill:#1a658f; stroke:none;" d="M35 60L36 61L35 60z"/>
<path style="fill:#6599bb; stroke:none;" d="M38 60L39 61L38 60z"/>
<path style="fill:#38a5d7; stroke:none;" d="M41 60L41.7222 60.7222L42.25 60.75L44 61L43.2778 60.2778L42.75 60.25L41 60z"/>
<path style="fill:#9fbacf; stroke:none;" d="M50 60L51 61L50 60z"/>
<path style="fill:#233b49; stroke:none;" d="M58 60L59 61L58 60z"/>
<path style="fill:#3d79a0; stroke:none;" d="M59 60L59 63L61 63L61 60L59 60z"/>
<path style="fill:#2783b2; stroke:none;" d="M63 60L63.7778 60.7222L64.25 60.75L65.0556 60.9444L67 61L66.2222 60.2778L65.75 60.25L64.9444 60.0556L63 60z"/>
<path style="fill:#5590b5; stroke:none;" d="M67.3333 60.6667L67.3333 61.3333L67.6667 61.3333L67.6667 60.6667L67.3333 60.6667z"/>
<path style="fill:#2781af; stroke:none;" d="M68 62L69.4444 61.75L70.5556 61.4167L72 61L71.2222 60.2778L70.7222 60.2778L70 60.1667L68.7222 60.6667L68.3611 60.8611L68 62z"/>
<path style="fill:#246e99; stroke:none;" d="M73 60L73 62L77 62L77 60L73 60z"/>
<path style="fill:#246d99; stroke:none;" d="M78 61L78.7778 61.7222L80.0556 61.8889L80.9722 61.7222L81.5 61.7222L83 61L82.2222 60.2778L80.9444 60.1111L80.0278 60.2778L79.5 60.2778L78 61z"/>
<path style="fill:#c1d6e0; stroke:none;" d="M83 60L84 61L83 60z"/>
<path style="fill:#2d749e; stroke:none;" d="M84 62L85.75 61.3333L86.2778 61.1389L87 60L85.6111 60.1111L84.6667 60.6667L84.3611 60.8611L84 62z"/>
<path style="fill:#e1ecf3; stroke:none;" d="M87 60L88 61L87 60z"/>
<path style="fill:#6d9dbd; stroke:none;" d="M91 60L92 61L91 60z"/>
<path style="fill:#d50928; stroke:none;" d="M8.33333 61.6667L8.33333 62L8.66667 62.3333L8.66667 61.6667L8.33333 61.6667z"/>
<path style="fill:#25739e; stroke:none;" d="M9 61L9 63L13 63L13 61L9 61z"/>
<path style="fill:#ebfa02; stroke:none;" d="M13 61L14 62L13 61z"/>
<path style="fill:#25729e; stroke:none;" d="M16 61L16 63L24 63L24 61L16 61z"/>
<path style="fill:#ec0210; stroke:none;" d="M24.3333 61.6667L24.3333 62.3333L24.6667 62.3333L24.6667 62L24.3333 61.6667z"/>
<path style="fill:#25719d; stroke:none;" d="M25 61L25 63L29 63L29 61L25 61z"/>
<path style="fill:#3c4246; stroke:none;" d="M29.3333 61.6667L29.3333 62.3333L29.6667 62.3333L29.6667 61.6667L29.3333 61.6667z"/>
<path style="fill:#dde3e8; stroke:none;" d="M38 61L39 62L38 61z"/>
<path style="fill:#373a3c; stroke:none;" d="M50 61L51 62L50 61z"/>
<path style="fill:#6e8498; stroke:none;" d="M51 61L52 62L51 61z"/>
<path style="fill:#95afc5; stroke:none;" d="M56 61L57 62L56 61z"/>
<path style="fill:#dae2e7; stroke:none;" d="M57 61L58 62L57 61z"/>
<path style="fill:#6d96b2; stroke:none;" d="M58 61L59 62L58 61z"/>
<path style="fill:#99b9ce; stroke:none;" d="M62.3333 61.6667L62.3333 62L62.6667 62.3333L62.6667 62L62.3333 61.6667z"/>
<path style="fill:#246e9a; stroke:none;" d="M63 61L63.7778 61.7222L64.25 61.75L65.0556 61.9444L67 62L66.2222 61.2778L65.75 61.25L64.9444 61.0556L63 61z"/>
<path style="fill:#73a1c0; stroke:none;" d="M70 61L71 62L70 61z"/>
<path style="fill:#072d44; stroke:none;" d="M71.6667 61.3333L72 61.6667L72.3333 61.6667L72 61.3333L71.6667 61.3333z"/>
<path style="fill:#e41230; stroke:none;" d="M82 61L83 62L82 61z"/>
<path style="fill:#1f3e50; stroke:none;" d="M83 61L84 62L83 61z"/>
<path style="fill:#abb8c1; stroke:none;" d="M86.3333 61.6667L86.3333 62.3333L86.6667 62.3333L86.6667 61.6667L86.3333 61.6667z"/>
<path style="fill:#c8f107; stroke:none;" d="M88 61L89 62L88 61z"/>
<path style="fill:#c4cacf; stroke:none;" d="M99 61L100 62L99 61z"/>
<path style="fill:#96a9b4; stroke:none;" d="M30 62L31 63L30 62z"/>
<path style="fill:#b7bfc5; stroke:none;" d="M35 62L36 63L35 62z"/>
<path style="fill:#e4f500; stroke:none;" d="M39 62L40 63L39 62z"/>
<path style="fill:#2c363b; stroke:none;" d="M43 62L41.5556 62.7222L41 62.75L39 63L39.7778 63.7222L40.3056 63.75L41.0833 63.9167L42.6389 63.6944L43.2222 63.3889L43.6111 62.6667L43 62z"/>
<path style="fill:#8dacc3; stroke:none;" d="M55 62L56 63L55 62z"/>
<path style="fill:#777d80; stroke:none;" d="M56 62L57 63L56 62z"/>
<path style="fill:#343b3f; stroke:none;" d="M58 62L58.3611 63.1389L58.7222 63.3333L59.3333 63.7222L61.0278 63.9722L62 64L64 64L65 64L68 64L77 64L76.2222 63.25L75.6944 63.1667L74.8889 62.8611L73 62.6111L72 62.6111L71 62.6944L69 62.9167L68 62.9722L66 63L65 63L64 63L62 62.9167L61.0556 62.7778L60.0556 62.5833L58 62z"/>
<path style="fill:#568dae; stroke:none;" d="M63 62L63.7222 62.7222L64.25 62.75L66 63L65.2778 62.2778L64.75 62.25L63 62z"/>
<path style="fill:#7ca4bd; stroke:none;" d="M66 62L66.7778 62.7222L67.25 62.75L68.0556 62.9444L70 63L69.2222 62.2778L68.75 62.25L67.9444 62.0556L66 62z"/>
<path style="fill:#def2fe; stroke:none;" d="M70 62L71 63L70 62z"/>
<path style="fill:#576671; stroke:none;" d="M71 62L72 63L71 62z"/>
<path style="fill:#6395b4; stroke:none;" d="M73 62L73.7778 62.7222L74.25 62.75L75.0556 62.9444L77 63L76.2222 62.2778L75.75 62.25L74.9444 62.0556L73 62z"/>
<path style="fill:#37393a; stroke:none;" d="M77 62L78 63L77 62z"/>
<path style="fill:#699ab7; stroke:none;" d="M78 62L78.7778 62.7222L79.25 62.75L80.0556 62.9444L82 63L81.2222 62.2778L80.75 62.25L79.9444 62.0556L78 62z"/>
<path style="fill:#353c40; stroke:none;" d="M82 62L80.5556 62.7222L80 62.75L78 63L78.7778 63.7222L79.3056 63.75L80.0833 63.9167L81.6389 63.6944L82.2222 63.3889L82.6111 62.6667L82 62z"/>
<path style="fill:#78a4bf; stroke:none;" d="M83 62L83.7222 62.7222L84.25 62.75L86 63L85.2778 62.2778L84.75 62.25L83 62z"/>
<path style="fill:#83abc4; stroke:none;" d="M89.6667 62.3333L89.6667 62.6667L90.3333 62.6667L90.3333 62.3333L89.6667 62.3333z"/>
<path style="fill:#85abc4; stroke:none;" d="M94.6667 62.3333L94.6667 62.6667L95.3333 62.6667L95.3333 62.3333L94.6667 62.3333z"/>
<path style="fill:#5d8fb0; stroke:none;" d="M96.6667 62.3333L97 62.6667L97.3333 62.6667L97.3333 62.3333L96.6667 62.3333z"/>
<path style="fill:#a0afb9; stroke:none;" d="M98 62L99 63L98 62z"/>
<path style="fill:#2a353b; stroke:none;" d="M8 63L8.77778 63.7222L9.30556 63.75L10.0556 63.9444L10.9722 63.9722L13 64L12.2222 63.2778L11.6944 63.25L10.9444 63.0556L10.0278 63.0278L8 63M16 63L16.7778 63.7222L17.3056 63.75L18.1111 63.9444L19.0278 63.9722L20 64L22 64L24 64L29 64L28.2222 63.2778L27.6944 63.25L26.8889 63.0556L25.9722 63.0278L25 63L23 63L21 63L16 63z"/>
<path style="fill:#31393f; stroke:none;" d="M31 63L31.7778 63.7222L32.25 63.75L33.0556 63.9444L35 64L34.2222 63.2778L33.75 63.25L32.9444 63.0556L31 63z"/>
<path style="fill:#2b353b; stroke:none;" d="M51 63L51.7778 63.7222L52.3056 63.75L53.0556 63.9444L53.9722 63.9722L56 64L55.2222 63.2778L54.6944 63.25L53.9444 63.0556L53.0278 63.0278L51 63z"/>
<path style="fill:#373d40; stroke:none;" d="M84.6667 63.3333L85 63.6667L85.3333 63.6667L85 63.3333L84.6667 63.3333z"/>
<path style="fill:#363d41; stroke:none;" d="M88 63L88.7222 63.7222L89.25 63.75L91 64L90.2778 63.2778L89.75 63.25L88 63z"/>
<path style="fill:#343c40; stroke:none;" d="M95 63L95.7222 63.7222L96.25 63.75L98 64L97.2778 63.2778L96.75 63.25L95 63z"/>
</svg>
