<?xml version="1.0" standalone="yes"?>
<svg xmlns="http://www.w3.org/2000/svg" width="108" height="108">
<path style="fill:#ffffff; stroke:none;" d="M0 0L0 108L108 108L108 0L0 0z"/>
<path style="fill:#1a1a1b; stroke:none;" d="M21 42L21.7222 43.1389L22.25 43.3333L24 44L23 42L21 42z"/>
<path style="fill:#0e0e0e; stroke:none;" d="M58 42L58.7222 43.1389L59.25 43.3333L61 44L60 42L58 42z"/>
<path style="fill:#020202; stroke:none;" d="M77 43L77 45L80 45L80 43L77 43z"/>
<path style="fill:#2d3e44; stroke:none;" d="M44 44L45 45L44 44z"/>
<path style="fill:#54727d; stroke:none;" d="M45 44L46 45L45 44z"/>
<path style="fill:#040607; stroke:none;" d="M46 44L47 45L46 44z"/>
<path style="fill:#091215; stroke:none;" d="M43.3333 45.6667L43.3333 46.3333L43.6667 46.3333L43.6667 45.6667L43.3333 45.6667z"/>
<path style="fill:#4caad3; stroke:none;" d="M44 45L44 48L45.1389 47.2778L45.3333 46.75L46 45L44 45z"/>
<path style="fill:#3f4e56; stroke:none;" d="M46 45L47 46L46 45z"/>
<path style="fill:#020303; stroke:none;" d="M46.3333 46.6667L46.3333 47.3333L46.6667 47.3333L46.6667 47L46.3333 46.6667z"/>
<path style="fill:#030608; stroke:none;" d="M21.6667 47.3333L21.6667 47.6667L22.3333 47.6667L22 47.3333L21.6667 47.3333z"/>
<path style="fill:#4e5456; stroke:none;" d="M23.6667 47.3333L24 47.6667L24.3333 47.6667L24 47.3333L23.6667 47.3333z"/>
<path style="fill:#7d8589; stroke:none;" d="M25 47L26 48L25 47z"/>
<path style="fill:#4b5052; stroke:none;" d="M26.6667 47.3333L27 47.6667L27.3333 47.6667L27 47.3333L26.6667 47.3333z"/>
<path style="fill:#7f878c; stroke:none;" d="M28.6667 47.3333L28.6667 47.6667L29.3333 47.6667L29 47.3333L28.6667 47.3333z"/>
<path style="fill:#a9b7bd; stroke:none;" d="M30.6667 47.3333L31 47.6667L31.3333 47.6667L31 47.3333L30.6667 47.3333z"/>
<path style="fill:#1e2122; stroke:none;" d="M32 47L33 48L32 47z"/>
<path style="fill:#bdcdd4; stroke:none;" d="M33.6667 47.3333L34 47.6667L34.3333 47.6667L34 47.3333L33.6667 47.3333z"/>
<path style="fill:#565d60; stroke:none;" d="M35 47L36 48L35 47z"/>
<path style="fill:#0d1011; stroke:none;" d="M36 47L36 49.0556L36.0278 50.0278L36.1111 50.8889L36.2778 51.6667L36.8611 52.6389L38 53L37.8056 50.9444L37.6667 49.9722L37.5556 49.1111L37.1944 48.3056L37.0833 47.7778L36 47z"/>
<path style="fill:#7e8a90; stroke:none;" d="M38 47L39 48L38 47z"/>
<path style="fill:#a8b9c2; stroke:none;" d="M39.6667 47.3333L40 47.6667L40.3333 47.6667L40 47.3333L39.6667 47.3333z"/>
<path style="fill:#000000; stroke:none;" d="M41.6667 47.3333L42 47.6667L42.3333 47.6667L42 47.3333L41.6667 47.3333z"/>
<path style="fill:#556973; stroke:none;" d="M43 47L44 48L43 47z"/>
<path style="fill:#6a889a; stroke:none;" d="M45 47L46 48L45 47z"/>
<path style="fill:#000000; stroke:none;" d="M51 47L52 48L51 47z"/>
<path style="fill:#97c2d5; stroke:none;" d="M52.6667 47.3333L53 47.6667L53.3333 47.6667L53 47.3333L52.6667 47.3333z"/>
<path style="fill:#2d3539; stroke:none;" d="M54 47L55 48L54 47z"/>
<path style="fill:#4585aa; stroke:none;" d="M55 47L55 49L54 50L53 49L53.1111 50.3889L53.6667 51.3333L54.2778 51.6667L54.6111 51.8889L56 52L55.9722 49.9722L55.9444 49.0556L55.75 48.3056L55.7222 47.7778L55 47z"/>
<path style="fill:#050809; stroke:none;" d="M56 47L56 52L56.75 51.2222L56.8333 50.6944L57.1667 49.9444L57.3889 49.0278L58 47L56 47z"/>
<path style="fill:#7e949d; stroke:none;" d="M58 47L59 48L58 47z"/>
<path style="fill:#a9c7d4; stroke:none;" d="M59 47L60 48L59 47z"/>
<path style="fill:#276680; stroke:none;" d="M60.3333 47.6667L60.3333 48L60.6667 48.3333L60.6667 47.6667L60.3333 47.6667z"/>
<path style="fill:#46555b; stroke:none;" d="M62 47L63 48L62 47z"/>
<path style="fill:#9bb7c4; stroke:none;" d="M63.6667 47.3333L64 47.6667L64.3333 47.6667L64 47.3333L63.6667 47.3333z"/>
<path style="fill:#2b414b; stroke:none;" d="M65.3333 47.6667L65.3333 48.3333L65.6667 48.3333L65.6667 47.6667L65.3333 47.6667z"/>
<path style="fill:#5ebae7; stroke:none;" d="M66 47L65.5833 48.4444L65.25 49.5556L65 51L66.1389 50.6389L66.3333 50.2778L66.8333 49L66.7222 48.2778L66.7222 47.7778L66 47z"/>
<path style="fill:#99b7c4; stroke:none;" d="M67.6667 47.3333L68 47.6667L68.3333 47.6667L68.3333 47.3333L67.6667 47.3333z"/>
<path style="fill:#575f62; stroke:none;" d="M69 47L70 48L69 47z"/>
<path style="fill:#9cc4d4; stroke:none;" d="M70 47L70.7222 47.7222L71.25 47.75L73 48L72.2778 47.2778L71.75 47.25L70 47z"/>
<path style="fill:#2c3437; stroke:none;" d="M73 47L74 48L73 47z"/>
<path style="fill:#9bc1d2; stroke:none;" d="M74.6667 47.3333L74.6667 47.6667L75.3333 47.6667L75 47.3333L74.6667 47.3333z"/>
<path style="fill:#6a787e; stroke:none;" d="M76.6667 47.3333L77 47.6667L77.3333 47.6667L77 47.3333L76.6667 47.3333z"/>
<path style="fill:#9bc7d8; stroke:none;" d="M78 47L79 48L78 47z"/>
<path style="fill:#3f7894; stroke:none;" d="M79.3333 47.6667L79.3333 48.3333L79.6667 48.3333L79.6667 47.6667L79.3333 47.6667z"/>
<path style="fill:#25343a; stroke:none;" d="M81 47L82 48L81 47z"/>
<path style="fill:#80adc0; stroke:none;" d="M82 47L82.7222 47.7222L83.25 47.75L85 48L84.2778 47.2778L83.75 47.25L82 47z"/>
<path style="fill:#254e5f; stroke:none;" d="M85 47L85 50L85.6944 49.25L85.6944 48.8056L85.6944 47.75L85 47z"/>
<path style="fill:#000000; stroke:none;" d="M20 48L20 53L20.7222 52.2222L20.75 51.6944L20.9167 50.0833L20.75 49.3056L20.7222 48.7778L20 48z"/>
<path style="fill:#4686ab; stroke:none;" d="M21 48L21 52L21.7222 51.2222L21.8889 50L21.7222 49.2778L21.7222 48.7778L21 48z"/>
<path style="fill:#31c5ff; stroke:none;" d="M22 48L22.0833 49.5L22.2222 50.0556L22.6111 52L22.9167 54L23 54.9722L23.2778 56.6667L23.8611 57.6389L25 58L24.9167 56.5L24.7778 56L24.5833 55L24 53L26 54L26 53L25.6944 51.75L25.2778 50.6667L25.2778 50.0833L25.1944 49.6944L26 49L25.2222 48.2778L24.75 48.25L23.9444 48.0556L22 48z"/>
<path style="fill:#49a8d6; stroke:none;" d="M26 48L26.25 50L26.2778 50.5556L27 52L27.7222 51.2222L27.75 50.75L27.9444 49.9444L28 48L26 48z"/>
<path style="fill:#34c5fe; stroke:none;" d="M28 48L28 58L32 58L31.3333 56.9167L30.6944 55.7222L30.4722 53.9722L30.5556 53L30.5 51.0556L30 49L32 50L31.6389 48.8611L30.7222 48.2778L29.4722 48.0278L28 48z"/>
<path style="fill:#4ba6d2; stroke:none;" d="M32 48L32.0833 49.5L32.2222 50.0556L32.3889 51L32.75 52.5L33 54L32 52L31.3056 52.75L31.3889 53.7778L31.6944 54.3056L32.6111 54.8889L34 55L34 52.9444L33.9722 51.9444L33.7222 50.1111L33.3333 49.3056L33.1389 48.7778L32 48z"/>
<path style="fill:#37bff7; stroke:none;" d="M33 48L33.5833 50.0556L33.7778 51.0556L33.9167 52L34 54L34 54.9444L34 55.9444L34 58L35.4722 57.9444L35.9722 57.8611L37.6111 57.7778L39.1667 57.8611L39.5833 57.9444L41 58L41 48L39 48L39 54L37.8056 54.3056L37.4167 54.6667L36 56L35.4167 53.9444L35.0833 52L35 51.0278L34.7222 49.3333L34.1389 48.3611L33 48z"/>
<path style="fill:#67a0bf; stroke:none;" d="M35 48L35 51L35.6944 50.25L35.6944 49.1944L35.6944 48.75L35 48z"/>
<path style="fill:#429ac8; stroke:none;" d="M38 48L38 51L38.6944 50.25L38.6944 49.1944L38.6944 48.75L38 48z"/>
<path style="fill:#23292b; stroke:none;" d="M41.3333 48.6667L41.3333 49L41.6667 49.3333L41.6667 49L41.3333 48.6667z"/>
<path style="fill:#52656e; stroke:none;" d="M42 48L43 49L42 48z"/>
<path style="fill:#32c4fd; stroke:none;" d="M43 48L42.2778 49.5L42.25 50.0556L42.0556 51.0556L42.0278 53L42.1111 54L42.7222 55.8889L44.0556 57.2778L44.9722 57.6667L47 58L47.5833 55.9444L47.75 54.9444L47.8333 54L47.5833 52L47.3333 51.0556L46.9722 50.0556L46.8056 49.5L46 48L43 48z"/>
<path style="fill:#43758b; stroke:none;" d="M46 48L47 49L46 48z"/>
<path style="fill:#050607; stroke:none;" d="M47 48L48 49L47 48z"/>
<path style="fill:#1b2c34; stroke:none;" d="M50.3333 48.6667L50.3333 49.3333L50.6667 49.3333L50.6667 49L50.3333 48.6667z"/>
<path style="fill:#5f96b1; stroke:none;" d="M51 48L52 49L51 48z"/>
<path style="fill:#35c2fb; stroke:none;" d="M52 48L51.2778 49.5L51.25 50.0556L51.0556 51.0556L51.0278 53L51.1111 54L51.3333 54.9722L52.2778 56.6667L53.5278 57.6389L55 58L55.7222 56.5L55.75 56L55.9444 55L56 53L54.8611 53.3611L54.6667 53.6667L54.1111 54.6111L54 56L53 55L53 54L53 52L53 50L54 49L55 50L54.6389 48.8611L54.3333 48.6667L53.3889 48.1111L52 48z"/>
<path style="fill:#364e5b; stroke:none;" d="M57 48L57 51L57.6944 50.25L57.6944 49.1944L57.6944 48.75L57 48z"/>
<path style="fill:#46b6e7; stroke:none;" d="M58 48L58 50.0556L58.0278 51.0278L58.1111 51.8889L58.2778 52.6667L58.8611 53.6389L60 54L59.4167 51.9444L59.1944 50.9722L58.7778 49.3056L58.7222 48.7778L58 48z"/>
<path style="fill:#33c4fd; stroke:none;" d="M59 48L59 49.5L59.0556 51.0278L59.1111 52.6667L58.9444 53.2778L58.8889 53.6389L58 54L58.6667 55.0833L59 55.4444L59.9722 56.75L60.5556 57.3056L60.8333 57.6389L62 58L61.9722 55.9444L61.9167 54.9444L61.5278 53L61.1667 52L60.4167 50.1111L60 49.3056L59.8056 48.7778L59 48z"/>
<path style="fill:#080b0d; stroke:none;" d="M61 48L62 49L61 48z"/>
<path style="fill:#5293bb; stroke:none;" d="M62 48L62 51L62.6944 50.25L62.6944 49.1944L62.6944 48.75L62 48z"/>
<path style="fill:#36c1f9; stroke:none;" d="M63 48L63.25 49.5L63.6111 51.0556L63.7778 52L63.8889 54L63.7778 54.9444L63.5833 55.9444L63 58L64.3889 57.8889L65.3333 57.3333L65.6389 57.1389L66 56L67.4167 57.3333L67.8056 57.6944L69 58L69 55.9444L68.9722 54L68.9167 53L68.6111 51.0556L68.25 49.5L68 48L67.2222 48.7222L67 49.25L66 51L64.9722 49.2778L64.3889 48.6667L64.1667 48.3611L63 48z"/>
<path style="fill:#5fcafd; stroke:none;" d="M68 48L68 51L68.6944 50.25L68.6944 49.1944L68.6944 48.75L68 48z"/>
<path style="fill:#90b7d0; stroke:none;" d="M69 48L69 51L69.6944 50.25L69.6944 49.1944L69.6944 48.75L69 48z"/>
<path style="fill:#4aa9d4; stroke:none;" d="M70 48L70 56L70.7222 55.2222L70.75 54.6944L70.9444 53.8889L71 52L70.9722 51.0278L70.9444 50.1111L70.75 49.3056L70.7222 48.7778L70 48z"/>
<path style="fill:#35c3fd; stroke:none;" d="M71 48L71 58L73 58L73 55.9444L73 54.9444L72.9444 53L72.8611 52L72.8056 50.0556L73 48L71 48z"/>
<path style="fill:#4c7d97; stroke:none;" d="M73 48L74 49L73 48z"/>
<path style="fill:#33c3fd; stroke:none;" d="M74 48L74.6667 49.5L75 50.0556L75.9167 52L76.6389 53.9444L77.0278 54.9444L77.1944 55.5L78 57L78.7222 56.2222L78.75 55.6944L78.9167 54.8889L78.8889 53.9722L78.5 52L77.5 50.1111L75.9722 48.7222L75.4722 48.3611L74 48z"/>
<path style="fill:#7bd1fc; stroke:none;" d="M76 48L77 49L76 48z"/>
<path style="fill:#45afdf; stroke:none;" d="M77 48L77.25 49.4444L77.5833 50.5556L78 52L78.7222 51.2222L78.7222 50.7222L78.8333 50L78.3333 48.7222L78.1389 48.3611L77 48z"/>
<path style="fill:#19262b; stroke:none;" d="M80 48L81 49L80 48z"/>
<path style="fill:#3ebff6; stroke:none;" d="M81 48L80.75 49.5L80.6111 50.0556L80.3056 52L80.5278 54L81.5 55.8889L83.0278 57.2778L83.5278 57.6389L85 58L85 53L82 53L81.9722 50.9722L81.9444 50.0556L81.75 49.3056L81.7222 48.7778L81 48z"/>
<path style="fill:#29b2e9; stroke:none;" d="M82 51L83 51L83 50L84 49L84 51L84.6944 50.25L84.6944 49.1944L84.6944 48.75L84 48L82.8611 48.3611L82.6667 48.6667L82.1111 49.6111L82 51z"/>
<path style="fill:#2c9acc; stroke:none;" d="M24 49L24 51L26 51L26 49L24 49z"/>
<path style="fill:#2f9ac9; stroke:none;" d="M30 49L30.6667 50.75L30.8611 51.2778L32 52L31.3333 50.25L31.1389 49.7222L30 49z"/>
<path style="fill:#54636f; stroke:none;" d="M37.3333 49.6667L37.3333 50.3333L37.6667 50.3333L37.6667 49.6667L37.3333 49.6667z"/>
<path style="fill:#27414c; stroke:none;" d="M47 49L48 50L47 49z"/>
<path style="fill:#60ceff; stroke:none;" d="M60.3333 49.6667L60.3333 50.3333L60.6667 50.3333L60.6667 50L60.3333 49.6667z"/>
<path style="fill:#5c666c; stroke:none;" d="M61 49L62 50L61 49z"/>
<path style="fill:#7ad0fc; stroke:none;" d="M72.3333 49.6667L72.3333 50.3333L72.6667 50.3333L72.6667 50L72.3333 49.6667z"/>
<path style="fill:#90a7ba; stroke:none;" d="M73 49L74 50L73 49z"/>
<path style="fill:#358ebd; stroke:none;" d="M74.3333 49.6667L74.3333 50.3333L74.6667 50.3333L74.6667 49.6667L74.3333 49.6667z"/>
<path style="fill:#13232a; stroke:none;" d="M79 49L79 52L79.6944 51.25L79.6944 50.8056L79.6944 49.75L79 49z"/>
<path style="fill:#3f8daf; stroke:none;" d="M80.3333 49.6667L80.3333 50.3333L80.6667 50.3333L80.6667 49.6667L80.3333 49.6667z"/>
<path style="fill:#3e8bb7; stroke:none;" d="M83 49L83.1111 50.3889L83.6667 51.3333L83.8611 51.6389L85 52L84.1667 50.25L83.9722 49.7222L83 49z"/>
<path style="fill:#040708; stroke:none;" d="M86 49L86 59L86.7222 58.2222L86.75 57.6944L86.9444 56.8889L86.9722 55.9722L87 54L86.9722 52.0278L86.9444 51.1111L86.75 50.3056L86.7222 49.7778L86 49z"/>
<path style="fill:#517584; stroke:none;" d="M41 50L41 53L41.6944 52.25L41.6944 51.1944L41.6944 50.75L41 50z"/>
<path style="fill:#69bce6; stroke:none;" d="M47.3333 50.6667L47.3333 51L47.6667 51.3333L47.6667 51L47.3333 50.6667z"/>
<path style="fill:#506e7e; stroke:none;" d="M50 50L51 51L50 50z"/>
<path style="fill:#0b1317; stroke:none;" d="M61.3333 50.6667L61.3333 51.3333L61.6667 51.3333L61.6667 51L61.3333 50.6667z"/>
<path style="fill:#4eb4e2; stroke:none;" d="M63 50L62.9722 52.0556L62.9167 53.0556L62.6111 54.9444L62.25 56.5L62 58L63.1389 57.2222L63.3333 56.6944L63.7222 55.8889L63.9722 54L63.9444 52.1111L63.75 51.3056L63.7222 50.7778L63 50z"/>
<path style="fill:#4d7e9e; stroke:none;" d="M73 50L73 53.0556L73 54L73 55L73.1111 56.8889L73.3333 57.6667L73.6667 58.2778L74.2778 58.6667L76 59L75.4167 56.9444L75.1944 55.9444L74.8056 54L74.3333 52.1111L73.9722 51.3056L73.8056 50.7778L73 50z"/>
<path style="fill:#2faae0; stroke:none;" d="M75 50L75 58L75.75 57.2222L75.8333 56.6944L76.1389 55.8889L76.3889 54L76.25 52.1111L75.9444 51.3056L75.8056 50.7778L75 50z"/>
<path style="fill:#568ea9; stroke:none;" d="M85 50L86 51L85 50z"/>
<path style="fill:#40acdc; stroke:none;" d="M22 51L22 58L22.7222 57.2222L22.75 56.6944L22.9444 55.8889L22.9722 54.0278L22.9444 53.1111L22.75 52.3056L22.7222 51.7778L22 51z"/>
<path style="fill:#36525f; stroke:none;" d="M26 51L26 55L26.7222 54.2222L26.7222 53.7222L26.8889 53L26.7222 51.7778L26 51z"/>
<path style="fill:#3b525e; stroke:none;" d="M32 51L33 52L32 51z"/>
<path style="fill:#359dc9; stroke:none;" d="M35.3333 51.6667L35.3333 52L35.6667 52.3333L35.6667 52L35.3333 51.6667z"/>
<path style="fill:#72a5c3; stroke:none;" d="M38 51L38 54L38.6944 53.25L38.6944 52.1944L38.6944 51.75L38 51z"/>
<path style="fill:#6bcbf7; stroke:none;" d="M44 51L44 57L44.7222 56.2222L44.75 55.6944L44.9444 54.8889L44.9444 53.1111L44.75 52.3056L44.7222 51.7778L44 51z"/>
<path style="fill:#52afdc; stroke:none;" d="M45 51L45 57L45.7222 56.2222L45.75 55.6944L45.9444 54.8889L45.9444 53.1111L45.75 52.3056L45.7222 51.7778L45 51z"/>
<path style="fill:#182a31; stroke:none;" d="M48 51L48 56L48.7222 55.2222L48.75 54.6944L48.9167 53.0833L48.75 52.3056L48.7222 51.7778L48 51z"/>
<path style="fill:#0a0d0f; stroke:none;" d="M49 51L49 57L49.7222 56.2222L49.75 55.6944L49.9444 54.8889L49.9444 53.1111L49.75 52.3056L49.7222 51.7778L49 51z"/>
<path style="fill:#66abd1; stroke:none;" d="M50 51L50 56L50.7222 55.2222L50.75 54.6944L50.9167 53.0833L50.75 52.3056L50.7222 51.7778L50 51z"/>
<path style="fill:#66a2c1; stroke:none;" d="M57 51L57 56L57.7222 55.2222L57.75 54.6944L57.9167 53.0833L57.75 52.3056L57.7222 51.7778L57 51z"/>
<path style="fill:#384d58; stroke:none;" d="M62 51L61.9167 52.75L61.9167 53.2778L63 54L62.75 52.25L62.7222 51.7222L62 51z"/>
<path style="fill:#375868; stroke:none;" d="M69 51L70 52L69 51z"/>
<path style="fill:#5eabd3; stroke:none;" d="M74.3333 51.6667L74.3333 52.3333L74.6667 52.3333L74.6667 51.6667L74.3333 51.6667z"/>
<path style="fill:#60add2; stroke:none;" d="M82 51L82.3611 52.1389L82.6667 52.3333L83.6111 52.8889L85 53L85 57L85.7222 56.2222L85.75 55.6944L85.9444 54.9444L85.9722 54.0278L86 52L84.5556 51.75L83.4444 51.4167L82 51z"/>
<path style="fill:#37596b; stroke:none;" d="M85 51L86 52L85 51z"/>
<path style="fill:#162e3a; stroke:none;" d="M21 52L21 59L21.7222 58.2222L21.75 57.6944L21.9444 56.8889L21.9722 55.9722L21.9444 54.1111L21.75 53.3056L21.7222 52.7778L21 52z"/>
<path style="fill:#4e97bc; stroke:none;" d="M27 52L27 56L27.7222 55.2222L27.7222 54.7222L27.8889 54L27.7222 52.7778L27 52z"/>
<path style="fill:#0e171c; stroke:none;" d="M32.3333 52.6667L32.3333 53.3333L32.6667 53.3333L32.6667 53L32.3333 52.6667z"/>
<path style="fill:#5bb1dc; stroke:none;" d="M53 52L53 56L53.8333 55.25L54.6111 54.1944L54.8333 53.75L56 53L55.2778 52.2778L54.75 52.25L53 52z"/>
<path style="fill:#1e2e36; stroke:none;" d="M56 52L56 56L56.7222 55.2222L56.8889 54L56.7222 53.2778L56.7222 52.7778L56 52z"/>
<path style="fill:#709cb2; stroke:none;" d="M69.3333 52.6667L69.3333 53.3333L69.6667 53.3333L69.6667 52.6667L69.3333 52.6667z"/>
<path style="fill:#697f8c; stroke:none;" d="M79 52L80 53L79 52z"/>
<path style="fill:#2cabe0; stroke:none;" d="M24 53L24 55L26 55L25 53L24 53z"/>
<path style="fill:#2b96c8; stroke:none;" d="M30 53L30 56L30.6944 55.25L30.6944 54.1944L30.6944 53.75L30 53z"/>
<path style="fill:#5accff; stroke:none;" d="M35.3333 53.6667L35.3333 54.3333L35.6667 54.3333L35.6667 54L35.3333 53.6667z"/>
<path style="fill:#21333b; stroke:none;" d="M36 53L36 55L37 55L38 53L36 53z"/>
<path style="fill:#659ebd; stroke:none;" d="M41 53L42 54L41 53z"/>
<path style="fill:#9dd9f8; stroke:none;" d="M79 53L79 56L79.6944 55.25L79.6944 54.1944L79.6944 53.75L79 53z"/>
<path style="fill:#7fcdf2; stroke:none;" d="M41.3333 54.6667L41.3333 55L41.6667 55.3333L41.6667 55L41.3333 54.6667z"/>
<path style="fill:#84b0c9; stroke:none;" d="M62.3333 54.6667L62.3333 55.3333L62.6667 55.3333L62.6667 55L62.3333 54.6667z"/>
<path style="fill:#2b5a6c; stroke:none;" d="M69.3333 54.6667L69.3333 55.3333L69.6667 55.3333L69.6667 54.6667L69.3333 54.6667z"/>
<path style="fill:#4188b1; stroke:none;" d="M76.3333 54.6667L76.3333 55.3333L76.6667 55.3333L76.6667 54.6667L76.3333 54.6667z"/>
<path style="fill:#599ec6; stroke:none;" d="M80.3333 54.6667L80.3333 55.3333L80.6667 55.3333L80.6667 54.6667L80.3333 54.6667z"/>
<path style="fill:#4aa8d5; stroke:none;" d="M83.3333 54.6667L83.3333 55.3333L83.6667 55.3333L83.6667 54.6667L83.3333 54.6667z"/>
<path style="fill:#78a4bc; stroke:none;" d="M25 55L25 58L25.6944 57.25L25.6944 56.1944L25.6944 55.75L25 55z"/>
<path style="fill:#070707; stroke:none;" d="M26.3333 55.6667L26.3333 56.3333L26.6667 56.3333L26.6667 56L26.3333 55.6667z"/>
<path style="fill:#67bce7; stroke:none;" d="M30 56L30.7778 56.9722L31.25 57.1389L32.5278 57.7222L34 58L33.75 56.25L33.7222 55.7222L33 55L31 55L30 56z"/>
<path style="fill:#597585; stroke:none;" d="M36 55L37 56L36 55z"/>
<path style="fill:#40b5e9; stroke:none;" d="M58 55L57 56L57 58L58.1389 57.6389L58.3056 57.3056L58.6667 56.7778L58.6944 55.75L58 55z"/>
<path style="fill:#3391c0; stroke:none;" d="M59.3333 55.6667L59.3333 56.3333L59.6667 56.3333L59.6667 56L59.3333 55.6667z"/>
<path style="fill:#2d4e5e; stroke:none;" d="M27.3333 56.6667L27.3333 57.3333L27.6667 57.3333L27.6667 57L27.3333 56.6667z"/>
<path style="fill:#4b82a5; stroke:none;" d="M41 56L41.6667 57.4444L42.3333 58.5556L43 60L45 59.75L45.5556 59.7222L47 59L46.2222 58.1667L45.6944 57.9444L44.8889 57.4444L43.0556 56.6111L42.5 56.3333L41 56z"/>
<path style="fill:#689cb9; stroke:none;" d="M47 56L48 57L47 56z"/>
<path style="fill:#298cbe; stroke:none;" d="M50 56L50.7222 57.1389L51.25 57.3333L53 58L52 56L50 56z"/>
<path style="fill:#3e505b; stroke:none;" d="M56.3333 56.6667L56.3333 57L56.6667 57.3333L56.6667 57L56.3333 56.6667z"/>
<path style="fill:#9fcfef; stroke:none;" d="M66.3333 56.6667L66.3333 57.3333L66.6667 57.3333L66.6667 56.6667L66.3333 56.6667z"/>
<path style="fill:#66c2f0; stroke:none;" d="M69.3333 56.6667L69.3333 57.3333L69.6667 57.3333L69.6667 56.6667L69.3333 56.6667z"/>
<path style="fill:#a2cce6; stroke:none;" d="M70.3333 56.6667L70.3333 57.3333L70.6667 57.3333L70.6667 56.6667L70.3333 56.6667z"/>
<path style="fill:#74b2d4; stroke:none;" d="M76.3333 56.6667L76.3333 57.3333L76.6667 57.3333L76.6667 57L76.3333 56.6667z"/>
<path style="fill:#3c7fa9; stroke:none;" d="M77 56L77.2778 57.4722L77.8611 58.75L78.0278 59.2222L79 60L79.3611 58.5278L79.0833 58.0556L78.3611 56.7778L77 56z"/>
<path style="fill:#5dbce7; stroke:none;" d="M79.3333 56.6667L79.3333 57.3333L79.6667 57.3333L79.6667 56.6667L79.3333 56.6667z"/>
<path style="fill:#4b6475; stroke:none;" d="M80.3333 56.6667L80.3333 57.3333L80.6667 57.3333L80.6667 56.6667L80.3333 56.6667z"/>
<path style="fill:#2173a0; stroke:none;" d="M81 56L81.1111 57.3889L81.7222 58.3333L82.2778 58.6667L83.5278 58.9722L85 59L84.2222 57.9444L83.75 57.6389L82.4722 56.6944L81 56z"/>
<path style="fill:#247ba9; stroke:none;" d="M34 58L34.7778 58.7222L35.3056 58.75L36.1111 58.9444L37.0278 58.9722L37.9444 59L38.9444 59L41 59L40.2222 58.1944L38.8889 57.75L37.0556 57.6111L36.0556 57.6944L34 58z"/>
<path style="fill:#3f464b; stroke:none;" d="M41 57L42 58L41 57z"/>
<path style="fill:#1d1f22; stroke:none;" d="M47 57L47 60L47.6944 59.25L47.6944 58.1944L47.6944 57.75L47 57z"/>
<path style="fill:#101214; stroke:none;" d="M50.3333 57.6667L50.3333 58.3333L50.6667 58.3333L50.6667 58L50.3333 57.6667z"/>
<path style="fill:#728899; stroke:none;" d="M55 57L55 59L57 59L56 57L55 57z"/>
<path style="fill:#81a7c2; stroke:none;" d="M59 57L59 60L59.6944 59.25L59.6944 58.1944L59.6944 57.75L59 57z"/>
<path style="fill:#516f85; stroke:none;" d="M85 57L86 58L85 57z"/>
<path style="fill:#2781ae; stroke:none;" d="M22 58L22.7222 58.7222L23.25 58.75L25 59L24.2778 58.2778L23.75 58.25L22 58z"/>
<path style="fill:#566a78; stroke:none;" d="M25 58L26 59L25 58z"/>
<path style="fill:#486f88; stroke:none;" d="M27.3333 58.6667L27.3333 59.3333L27.6667 59.3333L27.6667 59L27.3333 58.6667z"/>
<path style="fill:#287fad; stroke:none;" d="M28 58L28.7778 58.7222L29.25 58.75L30.0556 58.9444L32 59L31.2222 58.2778L30.75 58.25L29.9444 58.0556L28 58z"/>
<path style="fill:#5688a8; stroke:none;" d="M32.6667 58.3333L33 58.6667L33.3333 58.6667L33 58.3333L32.6667 58.3333z"/>
<path style="fill:#000101; stroke:none;" d="M41 58L42 59L41 58z"/>
<path style="fill:#48525a; stroke:none;" d="M42 58L43 59L42 58z"/>
<path style="fill:#2c759f; stroke:none;" d="M51 58L51.7778 59.1389L52.25 59.3333L53.5278 59.8889L55 60L54.6389 58.8611L53.7222 58.2778L52.4722 58.0278L51 58z"/>
<path style="fill:#4a7895; stroke:none;" d="M56 60L57.3889 59.8889L58.3333 59.3333L58.6389 59.1389L59 58L57.25 58.6667L56.7222 58.8611L56 60z"/>
<path style="fill:#3178a3; stroke:none;" d="M60 58L60.7778 58.7222L61.3056 58.75L62.1111 58.9444L63.0278 58.9722L65 59L65.9444 59L69 59L68.2222 58.2778L67.6944 58.25L66.8889 58.0556L65.9722 58.0278L64 58L63.0556 58L60 58z"/>
<path style="fill:#779dba; stroke:none;" d="M69.6667 58.3333L70 58.6667L70.3333 58.6667L70 58.3333L69.6667 58.3333z"/>
<path style="fill:#25719c; stroke:none;" d="M71.6667 58.3333L71.6667 58.6667L72.3333 58.6667L72 58.3333L71.6667 58.3333z"/>
<path style="fill:#36627e; stroke:none;" d="M76 58L76 59L78 60L78 58L76 58z"/>
<path style="fill:#0d1317; stroke:none;" d="M80 58L81 59L80 58z"/>
<path style="fill:#3b4147; stroke:none;" d="M85 58L86 59L85 58z"/>
<path style="fill:#010406; stroke:none;" d="M21 59L21.3611 60.1389L22.2778 60.7222L23.5278 60.9722L25 61L24.2222 60.1944L23.75 60.0278L22.4722 59.4444L21 59z"/>
<path style="fill:#1e5d82; stroke:none;" d="M22 59L22.7222 59.7222L23.25 59.75L25 60L24.2778 59.2778L23.75 59.25L22 59z"/>
<path style="fill:#090b0c; stroke:none;" d="M25 59L26 60L25 59z"/>
<path style="fill:#2a6487; stroke:none;" d="M28 59L28.7778 59.7222L29.3056 59.75L30.1111 59.9444L31.0278 59.9722L32.9444 60L33.9444 60L36 60L35.2222 59.2778L34.6944 59.25L33.8889 59.0556L32.9722 59.0278L31.0556 59L30.0556 59L28 59z"/>
<path style="fill:#010406; stroke:none;" d="M27 60L27.7778 60.7222L28.3056 60.75L29.1111 60.9444L30.0278 60.9722L31 61L33 61L34 61L36 61L41 61L40.2222 60.25L39.6944 60.1667L38.8889 59.8611L37 59.6111L36 59.6111L35 59.6944L33 59.9167L31 60L30.0556 60L29.0556 60L27 60z"/>
<path style="fill:#417797; stroke:none;" d="M37 59L37.7778 59.7222L38.25 59.75L39.0556 59.9444L41 60L40.2222 59.2778L39.75 59.25L38.9444 59.0556L37 59z"/>
<path style="fill:#070707; stroke:none;" d="M42 59L43 60L42 59z"/>
<path style="fill:#2d3b44; stroke:none;" d="M46 59L47 60L46 59z"/>
<path style="fill:#3d4144; stroke:none;" d="M51 59L52 60L51 59z"/>
<path style="fill:#1d2022; stroke:none;" d="M55 59L56 60L55 59z"/>
<path style="fill:#5a829b; stroke:none;" d="M60 59L60.7778 59.7222L61.3056 59.75L62.1111 59.9444L63.0278 59.9722L65 60L65.9444 60L69 60L68.2222 59.2778L67.6944 59.25L66.8889 59.0556L65.9722 59.0278L64 59L63.0556 59L60 59z"/>
<path style="fill:#445058; stroke:none;" d="M69 59L70 60L69 59z"/>
<path style="fill:#547285; stroke:none;" d="M70 59L70.7778 59.7222L71.3056 59.75L72.1111 59.9444L72.9722 59.9722L73.9444 60L76 60L75.2222 59.2778L74.6944 59.25L73.8889 59.0556L73.0278 59.0278L72.0556 59L70 59z"/>
<path style="fill:#040607; stroke:none;" d="M56 60L56.7778 60.7222L57.3056 60.75L58.1111 60.9444L59.0278 60.9722L60 61L61 61L63 61L70 61L73 61L74 61L76 61L76.9722 60.9722L78.6667 60.7222L79.2778 60.3333L79.6389 60.1389L80 59L77.9444 59.2778L76.9444 59.3889L75 59.6667L73 59.9167L71 60L70 60L69 60L67 60L56 60z"/>
<path style="fill:#31383c; stroke:none;" d="M81 59L82 60L81 59z"/>
<path style="fill:#517d9a; stroke:none;" d="M82.6667 59.3333L82.6667 59.6667L83.3333 59.6667L83 59.3333L82.6667 59.3333z"/>
<path style="fill:#2a353d; stroke:none;" d="M84 59L85 60L84 59z"/>
<path style="fill:#030303; stroke:none;" d="M85 59L86 60L85 59z"/>
<path style="fill:#020507; stroke:none;" d="M43 60L43.7778 60.7222L44.25 60.75L45.0556 60.9444L47 61L46.2222 60.2778L45.75 60.25L44.9444 60.0556L43 60z"/>
<path style="fill:#040607; stroke:none;" d="M51 60L51.7778 60.7222L52.25 60.75L53.0556 60.9444L55 61L54.2222 60.2778L53.75 60.25L52.9444 60.0556L51 60z"/>
<path style="fill:#050708; stroke:none;" d="M81 60L81.7778 60.7222L82.25 60.75L83.0556 60.9444L85 61L84.2222 60.2778L83.75 60.25L82.9444 60.0556L81 60z"/>
</svg>
