<?xml version="1.0" standalone="yes"?>
<svg xmlns="http://www.w3.org/2000/svg" width="108" height="108">
<path style="fill:#ffffff; stroke:none;" d="M0 0L0 108L108 108L108 0L0 0z"/>
<path style="fill:#171717; stroke:none;" d="M46.6667 8.33334L46.6667 8.66666L47.3333 8.66666L47.3333 8.33334L46.6667 8.33334z"/>
<path style="fill:#121212; stroke:none;" d="M53 8L53.7778 8.72222L54.25 8.75L55.0556 8.94444L57 9L56.2222 8.27778L55.75 8.25L54.9444 8.05556L53 8z"/>
<path style="fill:#020202; stroke:none;" d="M40.6667 9.33334L40.6667 9.66666L41.3333 9.66666L41 9.33334L40.6667 9.33334z"/>
<path style="fill:#262727; stroke:none;" d="M61.6667 9.33334L61.6667 9.66666L62.3333 9.66666L62 9.33334L61.6667 9.33334z"/>
<path style="fill:#474748; stroke:none;" d="M64 10L65 11L64 10z"/>
<path style="fill:#0f0f0f; stroke:none;" d="M65 10L66 11L65 10z"/>
<path style="fill:#000000; stroke:none;" d="M64 11L65 12L64 11z"/>
<path style="fill:#333434; stroke:none;" d="M68 11L69 12L68 11z"/>
<path style="fill:#161717; stroke:none;" d="M68 13L71 13L70 11L68 12L68 13z"/>
<path style="fill:#aa9795; stroke:none;" d="M44 13L45 14L44 13z"/>
<path style="fill:#f0948c; stroke:none;" d="M45 13L45.7222 13.7222L46.25 13.75L48 14L47.2778 13.2778L46.75 13.25L45 13z"/>
<path style="fill:#f45648; stroke:none;" d="M20 32L18.5833 32.5278L17.4167 33.5L16.2778 35.0833L15.3889 37L14.6111 39L14.1944 40L13.8056 41L13.3889 42L13.0278 43L12.4167 45L12.0556 47L11.9444 48L11.6111 50L11.3889 51L11.0556 53L10.9444 54L10.6111 56L10.3889 57L10.0833 59L10.0278 60L10 61.9444L10 64L11 65L15 65L15 62.9444L15.0278 61.9444L15.0833 61L15.3889 59L15.7778 57L15.9167 56L16.0833 54L16.4167 52L16.6944 51L17.3889 49L17.8056 48L18.6111 46L19.3889 44L19.8333 43L20.25 42L20.7778 41L21.25 40L22.3889 38L23.0278 37L24.4167 35L26.0556 33L26.9444 32L28.6111 30.0278L29.3889 29.0833L31.0833 27.4167L33 26.0278L34 25.3889L36 24.2778L37 23.8333L38 23.3889L40 22.6111L42 21.8333L43 21.4722L45 21.0556L46 20.9444L48 20.6111L49 20.3889L51 20.0833L53 20.0833L54 20.2222L56 20.6111L58 21L59 21.2222L60 21.4722L62 22.25L63 22.7778L64 23.2222L65 23.7778L66 24.2222L67 24.7778L68 25.25L69 25.8333L70 26.3889L71.9167 27.6944L73.6111 29.1389L74.3611 29.8611L75.8611 31.3889L76.6389 32.2222L78.1389 34.0278L78.8611 35L79.6111 36L80.9722 38L81.6111 39L82.75 41L83.2222 42L83.75 43L84.1667 44L84.6111 45L85.3056 47L85.6111 48L85.8611 49L86.3889 51L86.6944 52L87 53L87.5833 55L87.9167 57L87.9722 58L88 59L88 61L88 66L93 66L93 59L93 57L92.9722 55L92.9167 54L92.6111 52L92.3611 51L91.8611 49L91.6111 48L91.3056 47L90.6944 45L90.3889 44L89.8333 42L89.5556 41L88.75 39L88.25 38L87.3889 36L86.5833 34L85.5278 32L84.8333 31L83.3611 29L82.6111 28L80.9167 26L79 24.0278L78 23.0833L77.0278 22.2222L75.2222 20.6944L73.6111 19.4167L71.9167 18.3889L70 17.4722L69 17L67 16.0833L65 15.3333L64 15L62 14.4167L60 14.0556L59 13.9444L58 13.7778L56 13.3889L54 13.0833L52 13L50 13.0833L48 13.3889L46 13.7778L45 13.9167L43 14.0833L41 14.4167L40 14.6944L38 15.3333L36 16.0833L34 17L32 18.0278L31 18.5833L30 19.2222L28 20.6389L27 21.3889L25 23.0833L24 24.0278L22.1111 26L21.3333 27L20.7222 28L20.3333 28.9444L20.1111 29.9444L20 32z"/>
<path style="fill:#f1afa9; stroke:none;" d="M56 13L56.7222 13.7222L57.25 13.75L59 14L58.2778 13.2778L57.75 13.25L56 13z"/>
<path style="fill:#010101; stroke:none;" d="M69 13L69.7222 13.9722L70.25 14.1667L72 15L71.6389 13.8611L71.3333 13.6667L70.3889 13.1111L69 13z"/>
<path style="fill:#746a6a; stroke:none;" d="M38 14L39 15L38 14z"/>
<path style="fill:#eea39c; stroke:none;" d="M39.6667 14.3333L39.6667 14.6667L40.3333 14.6667L40.3333 14.3333L39.6667 14.3333z"/>
<path style="fill:#efb1ab; stroke:none;" d="M62.6667 14.3333L62.6667 14.6667L63.3333 14.6667L63.3333 14.3333L62.6667 14.3333z"/>
<path style="fill:#030202; stroke:none;" d="M64 14L65 15L64 14z"/>
<path style="fill:#070606; stroke:none;" d="M36 15L37 16L36 15z"/>
<path style="fill:#edada9; stroke:none;" d="M37 15L38 16L37 15z"/>
<path style="fill:#ec9f97; stroke:none;" d="M65 15L66 16L65 15z"/>
<path style="fill:#140e0e; stroke:none;" d="M66 15L67 16L66 15z"/>
<path style="fill:#323333; stroke:none;" d="M74.6667 15.3333L74.6667 15.6667L75.3333 15.6667L75 15.3333L74.6667 15.3333z"/>
<path style="fill:#997f7e; stroke:none;" d="M34 16L35 17L34 16z"/>
<path style="fill:#a27b77; stroke:none;" d="M68 16L69 17L68 16z"/>
<path style="fill:#030303; stroke:none;" d="M74 16L74.7778 17.0556L75.3056 17.3611L76.1111 17.9444L76.9722 18.3611L78.5 18.8889L80 19L79.2222 17.6111L77.8889 16.6667L77.0278 16.3333L75.5 16.0278L74 16z"/>
<path style="fill:#e4928b; stroke:none;" d="M32.6667 17.3333L32.6667 17.6667L33.3333 17.6667L33.3333 17.3333L32.6667 17.3333z"/>
<path style="fill:#b48c88; stroke:none;" d="M69.6667 17.3333L69.6667 17.6667L70.3333 17.6667L70.3333 17.3333L69.6667 17.3333z"/>
<path style="fill:#432f2d; stroke:none;" d="M30 18L31 19L30 18z"/>
<path style="fill:#9b8482; stroke:none;" d="M72 18L73 19L72 18z"/>
<path style="fill:#492d2b; stroke:none;" d="M29 19L30 20L29 19z"/>
<path style="fill:#343535; stroke:none;" d="M79 19L79.7222 20.1389L80.25 20.3333L82 21L81 19L79 19z"/>
<path style="fill:#4f3836; stroke:none;" d="M28 20L29 21L28 20z"/>
<path style="fill:#f89648; stroke:none;" d="M48 20L48.7778 20.7222L49.3056 20.75L50.1111 20.9444L51.0278 20.9722L52.9444 21L53.9444 21L56 21L55.2222 20.2778L54.6944 20.25L53.8889 20.0556L52.9722 20.0278L51.0556 20L50.0556 20L48 20z"/>
<path style="fill:#b7908d; stroke:none;" d="M74 20L75 21L74 20z"/>
<path style="fill:#030303; stroke:none;" d="M79 20L80 21L79 20z"/>
<path style="fill:#61504f; stroke:none;" d="M26 21L27 22L26 21z"/>
<path style="fill:#ffe444; stroke:none;" d="M16 65L22 65L22 61.9444L22 61L22.0278 59L22.0833 58L22.3889 56L22.6389 55L23.1389 53L23.3889 52L23.6944 51L24.3889 49L24.8333 48L25.25 47L25.7778 46L26.25 45L27.3889 43L28.6944 41L29.4167 40L30.2222 39L31.0833 38L33 36.0278L34.9167 34.2222L35.7778 33.4167L37.3889 32.0278L38.2222 31.4167L40.0278 30.4167L41 30L42 29.6111L44 28.8056L45 28.3889L47 27.6944L48 27.4167L50 27.0833L51 27.0278L53 27.0833L54 27.2222L55 27.4167L56 27.6944L58 28.3889L59 28.8056L61 29.6111L63 30.3889L64.9722 31.2778L66.7778 32.4722L67.6111 33.25L69.2222 35.0278L71 37L71.9167 38L73.6111 40L74.3611 41L75.1389 42L76.5556 44L77.75 46L78.2222 47L78.75 48L79.1389 49L79.5556 50L80.1389 52L80.6111 54L81 56L81.3889 58L81.6111 59L81.9167 61L81.9722 62L82 63.9444L82 66L87 66L87 58L87 56L87 55L86.9167 53L86.5278 51L85.8333 49L85.4722 48L85.2222 47L84.7778 45L84.5278 44L83.75 42L83.2222 41L82.75 40L81.6111 38L80.9722 37L79.6111 35L78.8611 34.0278L78.1389 33.0833L76.6389 31.3889L75.8611 30.6389L75.1389 29.8611L74.3611 29.1389L73.6111 28.3889L71.9167 27.0278L70 25.8333L69 25.25L68 24.7778L67 24.2222L66 23.7778L65 23.2222L63 22.25L62 21.8611L61 21.4722L59 21.0833L57 21L56 21L54 21L51 21L48 21L47 21L46 21L44 21.0833L42 21.4722L41 21.8333L39 22.6111L37.0833 23.4167L35.3889 24.5L34.6111 25.2222L32.9167 26.8056L31.9722 27.5833L30 29L29 29.6944L28 30.4167L26.0833 32.0833L25.2222 33.0278L24.4167 34L23.6944 35L22.3889 37L21.8333 38L20.7778 40L20.25 41L19.8333 42L19.3889 43L19.0278 44L18.3889 46L18.1389 47L17.6389 49L17.3889 50L17.0833 52L16.9167 54L16.6111 56L16.3889 57L16.0833 59L16.0278 60L16 61.9444L16 62.9444L16 65z"/>
<path style="fill:#a27e7b; stroke:none;" d="M76 21L77 22L76 21z"/>
<path style="fill:#020202; stroke:none;" d="M77 21L78 22L77 21z"/>
<path style="fill:#090909; stroke:none;" d="M80.6667 21.3333L80.6667 21.6667L81.3333 21.6667L81 21.3333L80.6667 21.3333z"/>
<path style="fill:#252626; stroke:none;" d="M82 21L82.1111 22.3889L82.3333 22.7222L82.6667 23.3333L83.6111 23.8889L85 24L84.4722 22.6111L84.1389 22.2778L83.2222 21.3611L82 21z"/>
<path style="fill:#695f5d; stroke:none;" d="M25 22L26 23L25 22z"/>
<path style="fill:#765c5a; stroke:none;" d="M77 22L78 23L77 22z"/>
<path style="fill:#6e5654; stroke:none;" d="M24 23L25 24L24 23z"/>
<path style="fill:#7b5754; stroke:none;" d="M78 23L79 24L78 23z"/>
<path style="fill:#745755; stroke:none;" d="M23 24L24 25L23 24z"/>
<path style="fill:#7e4f4b; stroke:none;" d="M79 24L80 25L79 24z"/>
<path style="fill:#151516; stroke:none;" d="M83 24L83.6944 25.4722L84.0833 25.9444L84.6667 26.7222L85.75 27.6389L87 28L86.8889 26.5278L86.2778 25.2778L85.7222 24.7222L84.4722 24.1111L83 24z"/>
<path style="fill:#795b59; stroke:none;" d="M22 25L23 26L22 25z"/>
<path style="fill:#fdce48; stroke:none;" d="M33 25L31.0556 26.6667L30.2778 27.3889L29.7222 28.1667L29.3611 28.5833L29 30L30.5 29.3056L31.0556 28.9167L32.8889 27.6389L33.6944 26.8333L34.2222 26.4167L35 25L33 25z"/>
<path style="fill:#996e6b; stroke:none;" d="M80 25L81 26L80 25z"/>
<path style="fill:#0d0c0c; stroke:none;" d="M81 25L82 26L81 25z"/>
<path style="fill:#170c0b; stroke:none;" d="M21 26L22 27L21 26z"/>
<path style="fill:#88605c; stroke:none;" d="M81 26L82 27L81 26z"/>
<path style="fill:#201716; stroke:none;" d="M20 27L21 28L20 27z"/>
<path style="fill:#b3e845; stroke:none;" d="M47 27L47.7778 27.7222L48.3056 27.75L49.1111 27.9444L50.0278 27.9722L52 28L52.9444 28L56 28L55.2222 27.2778L54.6944 27.25L53.8889 27.0556L52.9722 27.0278L51 27L50.0556 27L47 27z"/>
<path style="fill:#876763; stroke:none;" d="M82 27L83 28L82 27z"/>
<path style="fill:#282221; stroke:none;" d="M19 28L20 29L19 28z"/>
<path style="fill:#89ec48; stroke:none;" d="M42 29L42.7778 29.6944L43.3056 29.6667L44.0556 29.7222L44.9722 29.5556L47 29L46.2222 28.3056L45.6944 28.3333L44.9444 28.2778L44.0278 28.4444L42 29z"/>
<path style="fill:#4eed46; stroke:none;" d="M47 28L47.7778 28.7222L48.3056 28.75L49.1111 28.9444L50.0278 28.9722L52 29L52.9444 29L56 29L55.2222 28.2778L54.6944 28.25L53.8889 28.0556L52.9722 28.0278L51 28L50.0556 28L47 28z"/>
<path style="fill:#7dec48; stroke:none;" d="M56 28L56.7778 28.9722L57.3056 29.1389L58.0556 29.5556L59.5 29.9167L61 30L60.2222 29.0278L59.6944 28.8611L58.9444 28.4444L57.5 28.0833L56 28z"/>
<path style="fill:#311e1c; stroke:none;" d="M83 28L84 29L83 28z"/>
<path style="fill:#8d615d; stroke:none;" d="M19 29L20 30L19 29z"/>
<path style="fill:#10ef46; stroke:none;" d="M22 65L27 65L27.25 63.5L27.6111 61.9444L27.9167 60L28.0833 58L28.4167 56L29.0278 54L29.3889 53L29.8333 52L30.25 51L30.7778 50L31.25 49L32.4444 47L33.8611 45L35.3889 43.0278L36.2222 42.0833L38.0278 40.3889L39 39.6389L40 38.8889L42 37.6667L44 36.8056L45 36.4167L47 35.6111L49 35.1111L50 35.0278L52 35L54 35.0833L56 35.4722L57 35.8333L58 36.1944L60 37.0833L61 37.6111L63 38.8889L64 39.6389L65.9722 41.2222L66.9167 42.0833L68.6111 44L70.1111 46L71.4167 48L71.9722 49L72.5 50L73.4167 52L73.7778 53L74.1111 54L74.6944 56L75.3056 58L75.5833 59L75.7778 60L75.9167 61L76 62.9444L76 63.9444L76 66L81 66L81 61L81 59L80.9722 58L80.9167 57L80.5833 55L80 53L79.6944 52L79.3889 51L78.8333 49L78.5556 48L77.75 46L76.75 44L76.1667 43L74.9722 41L73.5833 39.0278L71.9167 37.2222L70 35.6111L68 34.0278L67 33.3056L66 32.6944L65 32.2222L63 31.4167L61 30.5278L60 30.0833L59 29.7222L58 29.4167L56 29.0833L54 29L53 29L51 29L49 29L47 29.0833L46 29.2222L45 29.4167L44 29.7222L43 30.0833L41 31L40 31.5L39 32L37 33.0833L35 34.4167L33 36.0833L32 37.0278L30.0833 39L28.4722 41L27.25 43L26.25 45L25.3889 47L25.0278 48L24.3333 50L24 51L23.4167 53L23.1944 54L22.8056 56L22.6111 57L22.3889 58L22.0833 60L22.0278 61L22 62.9444L22 65z"/>
<path style="fill:#9c554f; stroke:none;" d="M83 29L84 30L83 29z"/>
<path style="fill:#2b2323; stroke:none;" d="M18 30L19 31L18 30z"/>
<path style="fill:#f3736a; stroke:none;" d="M19 30L18 31L18 33L19.1111 32.25L19.4722 31.1944L19.6111 30.75L19 30z"/>
<path style="fill:#b0e948; stroke:none;" d="M39 30L39.7222 30.7222L40.25 30.75L42 31L41.2778 30.2778L40.75 30.25L39 30z"/>
<path style="fill:#b0e949; stroke:none;" d="M61 30L61.7222 30.7222L62.25 30.75L64 31L63.2778 30.2778L62.75 30.25L61 30z"/>
<path style="fill:#896866; stroke:none;" d="M84 30L85 31L84 30z"/>
<path style="fill:#000000; stroke:none;" d="M88.3333 30.6667L88.3333 31L88.6667 31.3333L88.6667 30.6667L88.3333 30.6667z"/>
<path style="fill:#222223; stroke:none;" d="M89.3333 30.6667L89.3333 31.3333L89.6667 31.3333L89.6667 30.6667L89.3333 30.6667z"/>
<path style="fill:#2b2827; stroke:none;" d="M17 31L18 32L17 31z"/>
<path style="fill:#a5eb46; stroke:none;" d="M37 31L37 33L38 33L39 31L37 31z"/>
<path style="fill:#42ee48; stroke:none;" d="M39.6667 31.3333L39.6667 31.6667L40.3333 31.6667L40.3333 31.3333L39.6667 31.3333z"/>
<path style="fill:#63ed46; stroke:none;" d="M62.6667 31.3333L62.6667 31.6667L63.3333 31.6667L63 31.3333L62.6667 31.3333z"/>
<path style="fill:#b2e949; stroke:none;" d="M64.6667 31.3333L64.6667 31.6667L65.3333 31.6667L65.3333 31.3333L64.6667 31.3333z"/>
<path style="fill:#352220; stroke:none;" d="M85 31L86 32L85 31z"/>
<path style="fill:#956a67; stroke:none;" d="M17 32L18 33L17 32z"/>
<path style="fill:#d2e646; stroke:none;" d="M66.6667 32.3333L66.6667 32.6667L67.3333 32.6667L67.3333 32.3333L66.6667 32.3333z"/>
<path style="fill:#050505; stroke:none;" d="M12.3333 33.6667L12.3333 34L12.6667 34.3333L12.6667 34L12.3333 33.6667z"/>
<path style="fill:#2f2220; stroke:none;" d="M16 33L17 34L16 33z"/>
<path style="fill:#48ed47; stroke:none;" d="M35.6667 33.3333L35.6667 33.6667L36.3333 33.6667L36 33.3333L35.6667 33.3333z"/>
<path style="fill:#76ec47; stroke:none;" d="M67 33L68 34L67 33z"/>
<path style="fill:#351c1a; stroke:none;" d="M86 33L87 34L86 33z"/>
<path style="fill:#9d7472; stroke:none;" d="M16 34L17 35L16 34z"/>
<path style="fill:#99eb47; stroke:none;" d="M34 34L35 35L34 34z"/>
<path style="fill:#73ec48; stroke:none;" d="M68 34L69 35L68 34z"/>
<path style="fill:#6b4744; stroke:none;" d="M87 34L87 37L87.6944 36.25L87.6944 35.1944L87.6944 34.75L87 34z"/>
<path style="fill:#2f2221; stroke:none;" d="M15 35L16 36L15 35z"/>
<path style="fill:#71ec48; stroke:none;" d="M33 35L34 36L33 35z"/>
<path style="fill:#0fe081; stroke:none;" d="M46.6667 35.3333L46.6667 35.6667L47.3333 35.6667L47.3333 35.3333L46.6667 35.3333z"/>
<path style="fill:#08d2be; stroke:none;" d="M48 35L48.7778 35.7222L49.3056 35.75L50.1111 35.9444L50.9722 35.9722L51.9444 36L54 36L53.2222 35.2778L52.6944 35.25L51.8889 35.0556L51.0278 35.0278L50.0556 35L48 35z"/>
<path style="fill:#0edc90; stroke:none;" d="M54 35L54.7222 35.7222L55.25 35.75L57 36L56.2778 35.2778L55.75 35.25L54 35z"/>
<path style="fill:#59ee48; stroke:none;" d="M69 35L70 36L69 35z"/>
<path style="fill:#9f6e6a; stroke:none;" d="M15 36L16 37L15 36z"/>
<path style="fill:#69ed48; stroke:none;" d="M32 36L33 37L32 36z"/>
<path style="fill:#0bcbc5; stroke:none;" d="M45 36L45.7222 36.7222L46.25 36.75L48 37L47.2778 36.2778L46.75 36.25L45 36z"/>
<path style="fill:#00b1f9; stroke:none;" d="M31 48L30.9167 49.5L30.7778 50.0556L30.5833 51.0556L30.3056 52L29.6944 54L29.3889 55L29.1389 56L28.6389 58L28.3889 59L28.0833 61L28 62.9444L28 65L33 65L33.25 63.5L33.6111 61.9444L33.7778 61L34.0833 59L34.3056 58L35.0833 56L35.6389 55L36.8056 53L37.3889 52L38.0278 51L39.4167 49.0833L40.9722 47.3889L41.6944 46.6667L42.2778 45.8333L42.6389 45.4167L43 44L44.5 43.9722L46.0556 43.75L47 43.5278L48 43.1667L50 42.5556L52 42.5L53 42.7222L55 43.3333L57 44.0278L58 44.4167L60 45.3889L60.9444 45.9167L61.9444 46.3611L62.5 46.6667L64 47L64.1111 48.5L64.6944 50.0556L65.8889 52L66.6111 53L67.9167 55L68.9167 57L69.5833 59L69.7778 60L69.9167 61L70 62.9444L70 63.9444L70 66L75 66L75 62.9444L75 62L75 61L74.9167 59L74.6111 57L74.3889 56L74.2222 55L73.9167 53L73.3611 51L72.3611 49L71.1944 47L69.9722 45.0833L68.5833 43.4167L66.9444 42L66.0833 41.3611L65.3056 40.6389L64.7778 40.25L64 39L62.5 38.8889L60.9444 38.3889L59 37.5278L58 37.0833L56 36.4167L54 36.0833L53 36.0278L51 36.0278L50 36.0833L48 36.4167L47 36.6944L45 37.3889L44 37.8056L42 38.6389L41 39.0556L39 40.0833L37 41.4167L36.0278 42.2222L35.1111 43.0833L33.6111 44.9722L32.4444 46.6944L32.1667 47.2222L31 48z"/>
<path style="fill:#0bd4b7; stroke:none;" d="M56 36L56.7222 36.7222L57.25 36.75L59 37L58.2778 36.2778L57.75 36.25L56 36z"/>
<path style="fill:#2e2524; stroke:none;" d="M14 37L15 38L14 37z"/>
<path style="fill:#89ec49; stroke:none;" d="M31 37L32 38L31 37z"/>
<path style="fill:#0de082; stroke:none;" d="M41.6667 37.3333L41.6667 37.6667L42.3333 37.6667L42.3333 37.3333L41.6667 37.3333z"/>
<path style="fill:#0ac6cd; stroke:none;" d="M43.6667 37.3333L43.6667 37.6667L44.3333 37.6667L44.3333 37.3333L43.6667 37.3333z"/>
<path style="fill:#0edf8b; stroke:none;" d="M59 37L59.7222 37.7222L60.25 37.75L62 38L61.2778 37.2778L60.75 37.25L59 37z"/>
<path style="fill:#715553; stroke:none;" d="M88 37L89 38L88 37z"/>
<path style="fill:#252222; stroke:none;" d="M89.3333 37.6667L89.3333 38.3333L89.6667 38.3333L89.6667 37.6667L89.3333 37.6667z"/>
<path style="fill:#a27875; stroke:none;" d="M14 38L15 39L14 38z"/>
<path style="fill:#71ec48; stroke:none;" d="M30 38L31 39L30 38z"/>
<path style="fill:#06c5cb; stroke:none;" d="M40 38L40.7222 38.7222L41.25 38.75L43 39L42.2778 38.2778L41.75 38.25L40 38z"/>
<path style="fill:#05c4cc; stroke:none;" d="M60 38L60.7222 38.7222L61.25 38.75L63 39L62.2778 38.2778L61.75 38.25L60 38z"/>
<path style="fill:#f79b95; stroke:none;" d="M88 38L89 39L88 38z"/>
<path style="fill:#ed9089; stroke:none;" d="M14 39L15 40L14 39z"/>
<path style="fill:#a5eb49; stroke:none;" d="M29 39L30 40L29 39z"/>
<path style="fill:#0fd6ac; stroke:none;" d="M39 39L40 40L39 39z"/>
<path style="fill:#664e4c; stroke:none;" d="M89 39L90 40L89 39z"/>
<path style="fill:#2a1917; stroke:none;" d="M13 40L14 41L13 40z"/>
<path style="fill:#0bd0b9; stroke:none;" d="M37.6667 40.3333L37.6667 40.6667L38.3333 40.6667L38 40.3333L37.6667 40.3333z"/>
<path style="fill:#0ddc9f; stroke:none;" d="M64.6667 40.3333L64.6667 40.6667L65.3333 40.6667L65.3333 40.3333L64.6667 40.3333z"/>
<path style="fill:#ad645e; stroke:none;" d="M89 40L90 41L89 40z"/>
<path style="fill:#070404; stroke:none;" d="M90 40L90 43L90.6944 42.25L90.6944 41.1944L90.6944 40.75L90 40z"/>
<path style="fill:#9f5e59; stroke:none;" d="M13 41L14 42L13 41z"/>
<path style="fill:#10df8d; stroke:none;" d="M36 41L37 42L36 41z"/>
<path style="fill:#0ed3ae; stroke:none;" d="M66 41L67 42L66 41z"/>
<path style="fill:#261a19; stroke:none;" d="M12.3333 42.6667L12.3333 43.3333L12.6667 43.3333L12.6667 42.6667L12.3333 42.6667z"/>
<path style="fill:#89eb49; stroke:none;" d="M27 42L28 43L27 42z"/>
<path style="fill:#0edf95; stroke:none;" d="M35 42L36 43L35 42z"/>
<path style="fill:#29a9f8; stroke:none;" d="M49 42L49.7778 42.7222L50.25 42.75L51.0556 42.9444L53 43L52.2222 42.2778L51.75 42.25L50.9444 42.0556L49 42z"/>
<path style="fill:#0fd5ac; stroke:none;" d="M67 42L68 43L67 42z"/>
<path style="fill:#6f88f2; stroke:none;" d="M47 43L47.7778 43.7222L48.3056 43.75L49.1111 43.9444L50.0278 43.9722L52 44L52.9444 44L56 44L55.2222 43.2778L54.6944 43.25L53.8889 43.0556L52.9722 43.0278L51 43L50.0556 43L47 43z"/>
<path style="fill:#8deb49; stroke:none;" d="M76 43L77 44L76 43z"/>
<path style="fill:#ac615a; stroke:none;" d="M90 43L91 44L90 43z"/>
<path style="fill:#040303; stroke:none;" d="M91 43L92 44L91 43z"/>
<path style="fill:#231f1f; stroke:none;" d="M11.3333 44.6667L11.3333 45L11.6667 45.3333L11.6667 44.6667L11.3333 44.6667z"/>
<path style="fill:#9f6a65; stroke:none;" d="M12 44L13 45L12 44z"/>
<path style="fill:#acea48; stroke:none;" d="M26 44L27 45L26 44z"/>
<path style="fill:#44a4f7; stroke:none;" d="M43.6667 44.3333L44 44.6667L44.3333 44.6667L44 44.3333L43.6667 44.3333z"/>
<path style="fill:#6b8ff3; stroke:none;" d="M45.6667 44.3333L46 44.6667L46.3333 44.6667L46 44.3333L45.6667 44.3333z"/>
<path style="fill:#ac5aec; stroke:none;" d="M34 65L40 65L40.0833 62.9444L40.4722 61L41.2778 59L42.4722 57L44.0833 55.0278L45 54.0833L46.6667 52.4444L47.2778 51.6667L47.6389 51.25L48 50L56 50L56.3611 51.25L56.6944 51.6667L57.8889 53.1389L58.6111 53.8611L59.3056 54.6389L60.6111 56.2222L61.7222 58.0278L62.1667 59L62.6111 60L63.3056 61.9444L63.75 63.5L64 65L69 65L69 62.9444L69 61.9444L68.9722 60L68.9167 59L68.5833 57L68.3056 56L67.5833 54L67.0833 53L66.5278 52L65.8333 51.0278L65.1389 50.0833L63.6111 48.4167L61.9167 47.0278L60 45.8889L59 45.4167L58 45.0278L56 44.4167L54 44.0833L53 44.0278L51 44L49 44.0833L47 44.4722L46 44.8333L45.0278 45.1944L43.2222 46.0556L41.6111 47.0833L39.9444 48.4167L38.25 50.0833L37.4722 51.0278L36.8611 52L36.2778 53L35.4722 55L35.2222 56L34.8056 58L34.6111 59L34.3889 60L34.0833 61.9444L34.0278 62.9444L34 65z"/>
<path style="fill:#609cf5; stroke:none;" d="M56 44L56.7222 44.7222L57.25 44.75L59 45L58.2778 44.2778L57.75 44.25L56 44z"/>
<path style="fill:#f68880; stroke:none;" d="M90 44L91 45L90 44z"/>
<path style="fill:#352a29; stroke:none;" d="M91 44L92 45L91 44z"/>
<path style="fill:#8c72ef; stroke:none;" d="M43.6667 45.3333L44 45.6667L44.3333 45.6667L44 45.3333L43.6667 45.3333z"/>
<path style="fill:#539df5; stroke:none;" d="M59.6667 45.3333L60 45.6667L60.3333 45.6667L60 45.3333L59.6667 45.3333z"/>
<path style="fill:#98eb49; stroke:none;" d="M77 45L78 46L77 45z"/>
<path style="fill:#985a54; stroke:none;" d="M91 45L91 48L91.6944 47.25L91.6944 46.1944L91.6944 45.75L91 45z"/>
<path style="fill:#060606; stroke:none;" d="M7 46L7 49L8.13889 48.2778L8.33333 47.75L9 46L7 46z"/>
<path style="fill:#895653; stroke:none;" d="M11 46L11 49L11.6944 48.25L11.6944 47.8056L11.6944 46.75L11 46z"/>
<path style="fill:#77ec49; stroke:none;" d="M25 46L26 47L25 46z"/>
<path style="fill:#08c7ce; stroke:none;" d="M32.3333 46.6667L32.3333 47.3333L32.6667 47.3333L32.6667 47L32.3333 46.6667z"/>
<path style="fill:#559bf5; stroke:none;" d="M61 46L62 47L61 46z"/>
<path style="fill:#837ef1; stroke:none;" d="M40.6667 47.3333L41 47.6667L41.3333 47.6667L41 47.3333L40.6667 47.3333z"/>
<path style="fill:#3da8f7; stroke:none;" d="M62.6667 47.3333L63 47.6667L63.3333 47.6667L63 47.3333L62.6667 47.3333z"/>
<path style="fill:#10dd97; stroke:none;" d="M71 47L72 48L71 47z"/>
<path style="fill:#b1e94b; stroke:none;" d="M78 47L79 48L78 47z"/>
<path style="fill:#faab4a; stroke:none;" d="M85.3333 47.6667L85.3333 48.3333L85.6667 48.3333L85.6667 48L85.3333 47.6667z"/>
<path style="fill:#342322; stroke:none;" d="M92.3333 47.6667L92.3333 48.3333L92.6667 48.3333L92.6667 47.6667L92.3333 47.6667z"/>
<path style="fill:#0d0a0a; stroke:none;" d="M10 48L10 52L10.7222 51.2222L10.8889 50L10.7222 49.2778L10.7222 48.7778L10 48z"/>
<path style="fill:#f9a74b; stroke:none;" d="M17.3333 48.6667L17.3333 49L17.6667 49.3333L17.6667 49L17.3333 48.6667z"/>
<path style="fill:#95eb48; stroke:none;" d="M24.3333 48.6667L24.3333 49.3333L24.6667 49.3333L24.6667 49L24.3333 48.6667z"/>
<path style="fill:#4c9df5; stroke:none;" d="M39 48L40 49L39 48z"/>
<path style="fill:#f68077; stroke:none;" d="M11.3333 49.6667L11.3333 50L11.6667 50.3333L11.6667 49.6667L11.3333 49.6667z"/>
<path style="fill:#a4ea47; stroke:none;" d="M79 49L79 52L79.6944 51.25L79.6944 50.8056L79.6944 49.75L79 49z"/>
<path style="fill:#a1635e; stroke:none;" d="M92 49L92 52L92.6944 51.25L92.6944 50.1944L92.6944 49.75L92 49z"/>
<path style="fill:#060606; stroke:none;" d="M6 50L6 52L8 52L8 50L6 50z"/>
<path style="fill:#09c5cf; stroke:none;" d="M30.3333 50.6667L30.3333 51.3333L30.6667 51.3333L30.6667 51L30.3333 50.6667z"/>
<path style="fill:#b674ee; stroke:none;" d="M48 50L48.7778 50.7222L49.3056 50.75L50.1111 50.9444L51.0278 50.9722L52.9444 51L53.9444 51L56 51L55.2222 50.2778L54.6944 50.25L53.8889 50.0556L52.9722 50.0278L51.0556 50L50.0556 50L48 50z"/>
<path style="fill:#f89b47; stroke:none;" d="M16 51L16 57L16.7222 56.2222L16.75 55.6944L16.9444 54.8889L16.9444 53.1111L16.75 52.3056L16.7222 51.7778L16 51z"/>
<path style="fill:#70ec48; stroke:none;" d="M23.3333 51.6667L23.3333 52.3333L23.6667 52.3333L23.6667 51.6667L23.3333 51.6667z"/>
<path style="fill:#cbb5db; stroke:none;" d="M48 51L48.7778 51.7222L49.3056 51.75L50.1111 51.9444L51.0278 51.9722L52.9444 52L53.9444 52L56 52L55.2222 51.2778L54.6944 51.25L53.8889 51.0556L52.9722 51.0278L51.0556 51L50.0556 51L48 51z"/>
<path style="fill:#311715; stroke:none;" d="M93 51L93 55L93.7222 54.2222L93.7222 53.7222L93.8889 53L93.7222 51.7778L93 51z"/>
<path style="fill:#93534e; stroke:none;" d="M10 52L10 55L10.6944 54.25L10.6944 53.1944L10.6944 52.75L10 52z"/>
<path style="fill:#0ed9a7; stroke:none;" d="M29 52L29 55L29.6944 54.25L29.6944 53.1944L29.6944 52.75L29 52z"/>
<path style="fill:#c3a4dc; stroke:none;" d="M46 52L47 53L46 52z"/>
<path style="fill:#4d4a50; stroke:none;" d="M47 52L48 53L47 52z"/>
<path style="fill:#b88fd9; stroke:none;" d="M56.6667 52.3333L57 52.6667L57.3333 52.6667L57 52.3333L56.6667 52.3333z"/>
<path style="fill:#0d0d0d; stroke:none;" d="M6 53L6 56L6.69444 55.25L6.69444 54.1944L6.69444 53.75L6 53z"/>
<path style="fill:#392f40; stroke:none;" d="M45 53L46 54L45 53z"/>
<path style="fill:#815d9d; stroke:none;" d="M58 53L59 54L58 53z"/>
<path style="fill:#98eb4a; stroke:none;" d="M80.3333 53.6667L80.3333 54.3333L80.6667 54.3333L80.6667 53.6667L80.3333 53.6667z"/>
<path style="fill:#1a0e0d; stroke:none;" d="M9 54L9 58L9.72222 57.2222L9.88889 56L9.72222 55.2778L9.72222 54.7778L9 54z"/>
<path style="fill:#9d8bab; stroke:none;" d="M44 54L45 55L44 54z"/>
<path style="fill:#28252a; stroke:none;" d="M58 54L59 55L58 54z"/>
<path style="fill:#f78048; stroke:none;" d="M87 54L87 57L87.6944 56.25L87.6944 55.1944L87.6944 54.75L87 54z"/>
<path style="fill:#f6756a; stroke:none;" d="M10.3333 55.6667L10.3333 56L10.6667 56.3333L10.6667 55.6667L10.3333 55.6667z"/>
<path style="fill:#a8eb4b; stroke:none;" d="M22 55L22 58L22.6944 57.25L22.6944 56.1944L22.6944 55.75L22 55z"/>
<path style="fill:#0ee474; stroke:none;" d="M28.3333 55.6667L28.3333 56.3333L28.6667 56.3333L28.6667 56L28.3333 55.6667z"/>
<path style="fill:#1d1c1e; stroke:none;" d="M43 55L44 56L43 55z"/>
<path style="fill:#806b92; stroke:none;" d="M60 55L61 56L60 55z"/>
<path style="fill:#539ef5; stroke:none;" d="M68.3333 55.6667L68.3333 56.3333L68.6667 56.3333L68.6667 55.6667L68.3333 55.6667z"/>
<path style="fill:#0cc6cb; stroke:none;" d="M74.3333 55.6667L74.3333 56.3333L74.6667 56.3333L74.6667 55.6667L74.3333 55.6667z"/>
<path style="fill:#a96a65; stroke:none;" d="M93 55L93 59L93.7222 58.2222L93.7222 57.7222L93.8889 57L93.7222 55.7778L93 55z"/>
<path style="fill:#3fa9f7; stroke:none;" d="M34.3333 56.6667L34.3333 57L34.6667 57.3333L34.6667 56.6667L34.3333 56.6667z"/>
<path style="fill:#7e589d; stroke:none;" d="M42 56L43 57L42 56z"/>
<path style="fill:#110e13; stroke:none;" d="M60 56L61 57L60 56z"/>
<path style="fill:#0ccac3; stroke:none;" d="M28.3333 57.6667L28.3333 58.3333L28.6667 58.3333L28.6667 58L28.3333 57.6667z"/>
<path style="fill:#1f1924; stroke:none;" d="M42 57L43 58L42 57z"/>
<path style="fill:#050606; stroke:none;" d="M56 59L57 59L59 58L58.25 57.3056L57.2222 57.3333L56.6944 57.6944L56.3611 57.8611L56 59z"/>
<path style="fill:#7a648b; stroke:none;" d="M61 57L62 58L61 57z"/>
<path style="fill:#fdca46; stroke:none;" d="M87 57L87 66L87.7222 65.2222L87.75 64.6944L87.9444 63.8889L87.9722 62.9722L88 61L87.9444 59.1111L87.75 58.3056L87.7222 57.7778L87 57z"/>
<path style="fill:#5e4f4e; stroke:none;" d="M9 58L10 59L9 58z"/>
<path style="fill:#f7914b; stroke:none;" d="M15 58L15 65L15.7222 64.2222L15.75 63.6944L15.9444 62.8889L15.9722 61.0278L15.9444 60.1111L15.75 59.3056L15.7222 58.7778L15 58z"/>
<path style="fill:#6091f4; stroke:none;" d="M34.3333 58.6667L34.3333 59.3333L34.6667 59.3333L34.6667 59L34.3333 58.6667z"/>
<path style="fill:#161418; stroke:none;" d="M41.3333 58.6667L41.3333 59.3333L41.6667 59.3333L41.6667 59L41.3333 58.6667z"/>
<path style="fill:#9b9c9d; stroke:none;" d="M57 58L58 59L57 58z"/>
<path style="fill:#444546; stroke:none;" d="M58 58L59 59L58 58z"/>
<path style="fill:#09070a; stroke:none;" d="M61 58L62 59L61 58z"/>
<path style="fill:#35a7f7; stroke:none;" d="M69.3333 58.6667L69.3333 59.3333L69.6667 59.3333L69.6667 58.6667L69.3333 58.6667z"/>
<path style="fill:#0fd9a3; stroke:none;" d="M75.3333 58.6667L75.3333 59.3333L75.6667 59.3333L75.6667 58.6667L75.3333 58.6667z"/>
<path style="fill:#89ec45; stroke:none;" d="M81 58L81 66L81.7222 65.2222L81.75 64.6944L81.9444 63.8889L82 62L81.9722 61.0278L81.9444 60.1111L81.75 59.3056L81.7222 58.7778L81 58z"/>
<path style="fill:#9d534e; stroke:none;" d="M9 59L9 64L9.72222 63.2222L9.75 62.6944L9.91667 61.0833L9.75 60.3056L9.72222 59.7778L9 59z"/>
<path style="fill:#1d1d1d; stroke:none;" d="M57 59L57.5 60.5L57.8056 61L58.5 62.5L59 64L59.7222 63.2222L59.75 62.6944L59.9444 61.9444L59.9722 61.0278L60 59L57 59z"/>
<path style="fill:#664680; stroke:none;" d="M62 59L63 60L62 59z"/>
<path style="fill:#a73c32; stroke:none;" d="M93.3333 59.6667L93.3333 60.3333L93.6667 60.3333L93.6667 60L93.3333 59.6667z"/>
<path style="fill:#816a94; stroke:none;" d="M40.3333 60.6667L40.3333 61L40.6667 61.3333L40.6667 61L40.3333 60.6667z"/>
<path style="fill:#030304; stroke:none;" d="M62.3333 60.6667L62.3333 61L62.6667 61.3333L62.6667 61L62.3333 60.6667z"/>
<path style="fill:#867ff1; stroke:none;" d="M69 60L69 66L69.7222 65.2222L69.75 64.6944L69.9444 63.8889L69.9444 62.1111L69.75 61.3056L69.7222 60.7778L69 60z"/>
<path style="fill:#04c3cf; stroke:none;" d="M75 60L75 66L75.7222 65.2222L75.75 64.6944L75.9444 63.8889L75.9444 62.1111L75.75 61.3056L75.7222 60.7778L75 60z"/>
<path style="fill:#000000; stroke:none;" d="M94 60L95 61L94 60z"/>
<path style="fill:#f68178; stroke:none;" d="M93 61L93 65L93.7222 64.2222L93.8889 63L93.7222 62.2778L93.7222 61.7778L93 61z"/>
<path style="fill:#342725; stroke:none;" d="M94 61L94 65L94.7222 64.2222L94.8889 63L94.7222 62.2778L94.7222 61.7778L94 61z"/>
<path style="fill:#060606; stroke:none;" d="M5 62L5 64L7 64L7 62L5 62z"/>
<path style="fill:#0de27b; stroke:none;" d="M27 62L27 65L27.6944 64.25L27.6944 63.1944L27.6944 62.75L27 62z"/>
<path style="fill:#37aaf8; stroke:none;" d="M33 62L33 65L33.6944 64.25L33.6944 63.1944L33.6944 62.75L33 62z"/>
<path style="fill:#0a050e; stroke:none;" d="M40 62L40 65L40.6944 64.25L40.6944 63.1944L40.6944 62.75L40 62z"/>
<path style="fill:#634778; stroke:none;" d="M63 62L63 65L63.6944 64.25L63.6944 63.1944L63.6944 62.75L63 62z"/>
<path style="fill:#a28785; stroke:none;" d="M9 64L10 65L9 64z"/>
<path style="fill:#f8968d; stroke:none;" d="M10 64L11 65L10 64z"/>
<path style="fill:#1e1e1e; stroke:none;" d="M24 65L25 66L24 65z"/>
<path style="fill:#bfe5fc; stroke:none;" d="M25 65L25.7778 65.7222L26.3056 65.75L27.1111 65.9444L28.0278 65.9722L30 66L30.9444 66L34 66L33.2222 65.2778L32.6944 65.25L31.8889 65.0556L30.9722 65.0278L29 65L28.0556 65L25 65z"/>
<path style="fill:#e2c5f8; stroke:none;" d="M34 65L34.7778 65.7222L35.3056 65.75L36.0556 65.9444L36.9722 65.9722L39 66L38.2222 65.2778L37.6944 65.25L36.9444 65.0556L36.0278 65.0278L34 65z"/>
<path style="fill:#020202; stroke:none;" d="M39 65L40 66L39 65z"/>
<path style="fill:#bc79ef; stroke:none;" d="M64 65L64.7778 65.7222L65.3056 65.75L66.0556 65.9444L66.9722 65.9722L69 66L68.2222 65.2778L67.6944 65.25L66.9444 65.0556L66.0278 65.0278L64 65z"/>
<path style="fill:#ab736e; stroke:none;" d="M93 65L94 66L93 65z"/>
<path style="fill:#050505; stroke:none;" d="M6 66L6 68L8 68L7 66L6 66z"/>
<path style="fill:#232222; stroke:none;" d="M91.6667 66.3333L92 66.6667L92.3333 66.6667L92.3333 66.3333L91.6667 66.3333z"/>
<path style="fill:#030303; stroke:none;" d="M60 67L60.3611 68.3889L61.2778 69.3333L61.6111 69.6389L63 70L62.2778 68.6111L61.75 68.25L60 67z"/>
<path style="fill:#2f2f2f; stroke:none;" d="M7 68L7.72222 69.1389L8.25 69.3333L10 70L9 68L7 68z"/>
<path style="fill:#0d0d0d; stroke:none;" d="M87 70L88 71L87 70z"/>
<path style="fill:#181919; stroke:none;" d="M89 70L89.7222 70.7222L90.25 70.75L92 71L91.2778 70.2778L90.75 70.25L89 70z"/>
<path style="fill:#a6e3fb; stroke:none;" d="M40.6667 71.3333L41 71.6667L41.3333 71.6667L41 71.3333L40.6667 71.3333z"/>
<path style="fill:#182024; stroke:none;" d="M42 71L43 72L42 71z"/>
<path style="fill:#355c6b; stroke:none;" d="M39.3333 72.6667L39.3333 73L39.6667 73.3333L39.6667 73L39.3333 72.6667z"/>
<path style="fill:#3ac7ff; stroke:none;" d="M40 72L40 74L42 74L42 72L40 72z"/>
<path style="fill:#7f9faf; stroke:none;" d="M42 72L43 73L42 72z"/>
<path style="fill:#222325; stroke:none;" d="M42.3333 73.6667L42.3333 74L42.6667 74.3333L42.6667 74L42.3333 73.6667z"/>
<path style="fill:#7fd4fa; stroke:none;" d="M39 74L40 75L39 74z"/>
<path style="fill:#3893c2; stroke:none;" d="M39 76L42 76L41 74L39 75L39 76z"/>
<path style="fill:#9cb8cf; stroke:none;" d="M41 74L42 75L41 74z"/>
<path style="fill:#464849; stroke:none;" d="M9 75L10 76L9 75z"/>
<path style="fill:#7d8386; stroke:none;" d="M10 75L11 76L10 75z"/>
<path style="fill:#515556; stroke:none;" d="M11 75L12 76L11 75z"/>
<path style="fill:#989fa3; stroke:none;" d="M12.6667 75.3333L13 75.6667L13.3333 75.6667L13 75.3333L12.6667 75.3333z"/>
<path style="fill:#030303; stroke:none;" d="M14 75L15 76L14 75z"/>
<path style="fill:#565a5b; stroke:none;" d="M15 75L16 76L15 75z"/>
<path style="fill:#979ea2; stroke:none;" d="M16 75L16.7222 75.7222L17.25 75.75L19 76L18.2778 75.2778L17.75 75.25L16 75z"/>
<path style="fill:#8a9296; stroke:none;" d="M23 75L24 76L23 75z"/>
<path style="fill:#070707; stroke:none;" d="M27 75L28 76L27 75z"/>
<path style="fill:#b1bfc5; stroke:none;" d="M31 75L32 76L31 75z"/>
<path style="fill:#647076; stroke:none;" d="M38 75L39 76L38 75z"/>
<path style="fill:#9be0fb; stroke:none;" d="M51 75L51.7222 75.7222L52.25 75.75L54 76L53.2778 75.2778L52.75 75.25L51 75z"/>
<path style="fill:#171919; stroke:none;" d="M54 75L55 76L54 75z"/>
<path style="fill:#60cefe; stroke:none;" d="M55 75L54.5278 76.4444L54.6667 77L55 79L55.7222 78.2222L55.8889 77L55.7222 76.2778L55.7222 75.7778L55 75z"/>
<path style="fill:#203036; stroke:none;" d="M56 75L56 82L56.7222 81.2222L56.75 80.6944L56.9444 79.8889L56.9722 78.9722L56.9444 77.1111L56.75 76.3056L56.7222 75.7778L56 75z"/>
<path style="fill:#1b1f20; stroke:none;" d="M59 75L60 76L59 75z"/>
<path style="fill:#cdf1ff; stroke:none;" d="M60 75L60.7222 75.7222L61.25 75.75L63 76L62.2778 75.2778L61.75 75.25L60 75z"/>
<path style="fill:#c7efff; stroke:none;" d="M66 75L66.7222 75.7222L67.25 75.75L69 76L68.2778 75.2778L67.75 75.25L66 75z"/>
<path style="fill:#a4b7bf; stroke:none;" d="M69 75L70 76L69 75z"/>
<path style="fill:#9dacb2; stroke:none;" d="M71 75L72 76L71 75z"/>
<path style="fill:#c7efff; stroke:none;" d="M72 75L72.7222 75.7222L73.25 75.75L75 76L74.2778 75.2778L73.75 75.25L72 75z"/>
<path style="fill:#737b7e; stroke:none;" d="M75.6667 75.3333L75.6667 75.6667L76.3333 75.6667L76 75.3333L75.6667 75.3333z"/>
<path style="fill:#bfedff; stroke:none;" d="M77 75L77.7222 75.7222L78.25 75.75L80 76L79.2778 75.2778L78.75 75.25L77 75z"/>
<path style="fill:#99b6c2; stroke:none;" d="M80 75L81 76L80 75z"/>
<path style="fill:#090909; stroke:none;" d="M81 75L82 76L81 75z"/>
<path style="fill:#99b7c3; stroke:none;" d="M82 75L83 76L82 75z"/>
<path style="fill:#bfecff; stroke:none;" d="M83 75L83.7222 75.7222L84.25 75.75L86 76L85.2778 75.2778L84.75 75.25L83 75z"/>
<path style="fill:#121212; stroke:none;" d="M86 75L87 76L86 75z"/>
<path style="fill:#808d93; stroke:none;" d="M87 75L88 76L87 75z"/>
<path style="fill:#bcecff; stroke:none;" d="M88.6667 75.3333L88.6667 75.6667L89.3333 75.6667L89 75.3333L88.6667 75.3333z"/>
<path style="fill:#575d5f; stroke:none;" d="M90 75L91 76L90 75z"/>
<path style="fill:#33474e; stroke:none;" d="M93 75L94 76L93 75z"/>
<path style="fill:#b1d8eb; stroke:none;" d="M94 75L94.7778 75.7222L95.3056 75.75L96.0556 75.9444L96.9722 75.9722L99 76L98.2222 75.2778L97.6944 75.25L96.9444 75.0556L96.0278 75.0278L94 75z"/>
<path style="fill:#1e3139; stroke:none;" d="M6 76L7 77L6 76z"/>
<path style="fill:#31c5ff; stroke:none;" d="M7 76L7.58333 78.0556L7.77778 79.0556L7.91667 80L8.08333 82L8.22222 83L8.58333 85L8.69444 86.9444L8.55556 87.9444L8 90L12 90L11.9167 88.5L11.7778 87.9444L11.6111 87L11.25 85.5L11 84L13 84L13 81L11.5 81.1667L11.1667 80.6667L11 80L11 78L13 79L14 79L13.6667 77.2778L13.2778 76.6667L12.6667 76.3333L11.8889 76.1111L10.0556 76L9.05556 76L7 76z"/>
<path style="fill:#5b696f; stroke:none;" d="M14 76L15 77L14 76z"/>
<path style="fill:#31c5ff; stroke:none;" d="M15 76L15.5833 78.0556L15.9167 80L15.9722 81L16.0833 83L16.3611 85L16.5278 86L16.5556 86.9444L16.5 87.9444L16 90L23 90L23 86L21.9167 86.75L20.7778 87.8056L20.4167 88.25L19 89L19.4722 87.5L19.3611 87L19.3333 86L19 84L21 84L21 81L19.5 81.1667L19.1667 80.6667L19 80L19 78L21 79L22 79L21.6667 77.2778L21.2778 76.6667L20.6667 76.3333L19.8889 76.1111L18.0556 76L17.0556 76L15 76z"/>
<path style="fill:#385d6c; stroke:none;" d="M22.3333 76.6667L22.3333 77.3333L22.6667 77.3333L22.6667 76.6667L22.3333 76.6667z"/>
<path style="fill:#31c5ff; stroke:none;" d="M23 76L23.6667 77.5L23.9722 78.0556L24.6944 80L24.8889 81L24.9722 82L25 83L25 85L25 86.9444L25 90L29 90L28.7222 88.5L28.1667 86.9444L27.8333 86L27.4722 85L27.0833 83L27.0278 82L27 80L27 79.0556L27 76L23 76z"/>
<path style="fill:#a2deff; stroke:none;" d="M27 76L28 77L27 76z"/>
<path style="fill:#151617; stroke:none;" d="M28 76L29 77L28 76z"/>
<path style="fill:#113a49; stroke:none;" d="M30 76L31 77L30 76z"/>
<path style="fill:#32c5ff; stroke:none;" d="M31 76L31.5833 78.0556L31.7778 79.0556L31.9167 80L32 81.9444L32 82.9444L32 85L30 85L30 90L35 90L35 76L31 76z"/>
<path style="fill:#3c4f59; stroke:none;" d="M35.3333 76.6667L35.3333 77L35.6667 77.3333L35.6667 77L35.3333 76.6667z"/>
<path style="fill:#6d7f87; stroke:none;" d="M37 76L38 77L37 76z"/>
<path style="fill:#32c5ff; stroke:none;" d="M38 76L37.5833 77.5L37.2222 79.0556L37.0833 80L37 82L37.0833 84L37.4722 86L38.1944 87.9444L38.5 88.5L39 90L44 90L44.25 88.5L44.6111 86.9444L44.9167 85L44.9444 84L44.9167 83L44.5833 81L43.8889 79.0278L43.3611 78.1111L41.8889 76.7222L41.0278 76.3333L39.5 76.0278L38 76z"/>
<path style="fill:#5594ae; stroke:none;" d="M42 76L43 77L42 76z"/>
<path style="fill:#030303; stroke:none;" d="M49 76L50 77L49 76z"/>
<path style="fill:#9bdeff; stroke:none;" d="M50 76L51 77L50 76z"/>
<path style="fill:#32c5ff; stroke:none;" d="M53 90L52.9167 88.5L52.7778 87.9444L52.3889 86L52.0833 84L52 82L52.1111 80.0278L52.2778 79.1111L52.6667 78.3056L52.8611 77.7778L54 77L53.2222 76.3056L51.9167 76.3889L50.3333 77.3333L49.7222 78.1111L49.3333 79.0278L49.0278 81L49.0278 83L49.0833 84L49.5 86L50.4444 87.8889L51.1944 88.6944L51.5833 89.2222L53 90z"/>
<path style="fill:#7994a3; stroke:none;" d="M59 76L60 77L59 76z"/>
<path style="fill:#32c5ff; stroke:none;" d="M60 76L59.9167 78.0556L59.6111 80L59.2222 82L59.0833 83L58.9167 85L58.7778 86L58.3889 87.9444L58.25 88.5L58 90L61 90L60.75 88.5556L60.4167 87.4444L60 86L61.1389 86.7778L61.3333 87.25L61.8889 88.5278L62 90L66 90L65.75 88.5L65.5833 87.9444L65.3056 86.9444L65 86L64.3889 84L64.1389 83L63.8611 82L63.3889 80L63.2222 79.0556L63.0278 77.5L63 76L60 76z"/>
<path style="fill:#40555f; stroke:none;" d="M65 76L66 77L65 76z"/>
<path style="fill:#32c5ff; stroke:none;" d="M66 76L66.5 77.5L66.8056 78.0556L67.1944 79.0556L67.6111 80L68.3889 82L69.1667 84L69.5278 84.9444L69.9167 86.5L70 88L70.75 87.2222L70.8333 86.6944L71.1667 85.8889L71.3611 84.9722L71.6111 84.0556L71.9167 82.5L72 81L72.7222 82.5L72.9444 84.0556L72.9722 85L73.0278 86.9722L73.1111 87.8889L73.3333 88.6667L73.6667 89.2778L74.2778 89.6667L76 90L75.9167 88.5L75.7778 87.9444L75.6111 86.9444L75.3889 86L75.0833 84L75.0278 83L75 81L75 79.0556L75 76L72 76L72 81L70 81L69.9722 79.5L69.6667 78.0556L68.7222 76.7222L67.4722 76.1111L66 76z"/>
<path style="fill:#2c92b9; stroke:none;" d="M69 76L70 77L69 76z"/>
<path style="fill:#508aa3; stroke:none;" d="M71 76L72 77L71 76z"/>
<path style="fill:#bae2f5; stroke:none;" d="M75 76L75 80L75.7222 79.2222L75.8889 78L75.7222 77.2778L75.7222 76.7778L75 76z"/>
<path style="fill:#2e6075; stroke:none;" d="M76 76L77 77L76 76z"/>
<path style="fill:#32c5ff; stroke:none;" d="M77 76L77.5833 78.0556L77.7778 79.0556L77.9167 80L78 82L78 84L78 90L82 90L81.75 88.5L81.6111 87.9444L81.2222 86L81.0833 85L80.9167 83L80.6944 81L80.6111 80L80.6111 79.0556L80.7778 77.5L81 76L77 76z"/>
<path style="fill:#3c5362; stroke:none;" d="M81.3333 76.6667L81.3333 77.3333L81.6667 77.3333L81.6667 76.6667L81.3333 76.6667z"/>
<path style="fill:#32c5ff; stroke:none;" d="M82 76L82.75 77.5L83.2222 78.0556L83.8611 79.0556L84.5278 80L85.5278 82L86.1667 84L86.4444 85L87.2222 86.9444L87.7778 87.9444L88 88.5L89 90L89.7222 89.2222L89.75 88.6944L89.9444 87.8889L89.9722 86.9722L90 85L90 84.0556L90 81L88.7778 80.2222L88.4167 79.6944L87.7778 78.9167L86.5278 77.3333L84.9722 76.3333L84.0278 76.1111L82 76z"/>
<path style="fill:#a5d9f2; stroke:none;" d="M86 76L87 77L86 76z"/>
<path style="fill:#1a6584; stroke:none;" d="M87 76L88 77L87 76z"/>
<path style="fill:#2bc4ff; stroke:none;" d="M88 76L88 77L90 78L90 76L88 76z"/>
<path style="fill:#667884; stroke:none;" d="M90.3333 76.6667L90.3333 77.3333L90.6667 77.3333L90.6667 76.6667L90.3333 76.6667z"/>
<path style="fill:#394f57; stroke:none;" d="M92 76L93 77L92 76z"/>
<path style="fill:#32c5ff; stroke:none;" d="M93 76L92 77L92 80.0556L92 81L92.0833 83L92.4167 85L93.1111 86.9722L93.6389 87.8889L95.0556 89.2778L95.9722 89.6667L98 90L98.7222 88.5L98.75 87.9444L98.9444 86.9444L98.9722 86L99 85.0556L99 84.0556L99 82L97.5 82.25L97 82.3889L95.5 82.75L94 83L94.25 81.5L94.6111 80L94.7778 79.0556L94.9167 78.5L95 77L96.3889 77.7778L96.7222 78.25L97.6389 79.5278L98 81L98.7222 80.2222L98.75 79.6944L98.9444 78.9444L98.9722 78.0278L99 76L93 76z"/>
<path style="fill:#7592a3; stroke:none;" d="M6 77L7 78L6 77z"/>
<path style="fill:#3a9ccb; stroke:none;" d="M7 77L7 81L7.72222 80.2222L7.88889 79L7.72222 78.2778L7.72222 77.7778L7 77z"/>
<path style="fill:#acd0e5; stroke:none;" d="M14 77L15 78L14 77z"/>
<path style="fill:#2d9acc; stroke:none;" d="M15 77L13.6389 78.5L12.9167 80L12.6389 80.5L13 82L14 82L15 80L16 81L15.9444 79.0556L15.75 78.25L15.7222 77.7778L15 77z"/>
<path style="fill:#3082af; stroke:none;" d="M23 77L23 80L23.6944 79.25L23.6944 78.1944L23.6944 77.75L23 77z"/>
<path style="fill:#37687f; stroke:none;" d="M27 77L28 78L27 77z"/>
<path style="fill:#6d9bbb; stroke:none;" d="M30 77L30 80L30.6944 79.25L30.6944 78.1944L30.6944 77.75L30 77z"/>
<path style="fill:#3796c5; stroke:none;" d="M31 77L31 81L31.7222 80.2222L31.7222 79.7222L31.8889 79L31.7222 77.7778L31 77z"/>
<path style="fill:#050606; stroke:none;" d="M36 77L37 78L36 77z"/>
<path style="fill:#9fddff; stroke:none;" d="M37 77L38 78L37 77z"/>
<path style="fill:#3387b4; stroke:none;" d="M40 77L40 80L40.6944 79.25L40.6944 78.1944L40.6944 77.75L40 77z"/>
<path style="fill:#7aa4b7; stroke:none;" d="M43 77L44 78L43 77z"/>
<path style="fill:#557e8f; stroke:none;" d="M49 77L50 78L49 77z"/>
<path style="fill:#297ba7; stroke:none;" d="M52 77L52.1111 78.4722L52.6667 79.7222L53.6111 80.6389L55 81L54.7222 79.5278L54.1111 78.2778L53.2222 77.3611L52 77z"/>
<path style="fill:#2ea2d6; stroke:none;" d="M54.3333 77.6667L54.3333 78.3333L54.6667 78.3333L54.6667 78L54.3333 77.6667z"/>
<path style="fill:#172329; stroke:none;" d="M58 77L58 81L58.7222 80.2222L58.8889 79L58.7222 78.2778L58.7222 77.7778L58 77z"/>
<path style="fill:#60b3dc; stroke:none;" d="M59 77L59 81L59.7222 80.2222L59.7222 79.7222L59.8889 79L59.7222 77.7778L59 77z"/>
<path style="fill:#466f7e; stroke:none;" d="M63 77L64 78L63 77z"/>
<path style="fill:#97b9cf; stroke:none;" d="M65 77L66 78L65 77z"/>
<path style="fill:#4c8cb3; stroke:none;" d="M64 79L65.3889 79.6111L65.7222 79.4167L66.3333 79.2778L66.8889 78.3889L67 77L65.25 77.8333L64.7222 78.0278L64 79z"/>
<path style="fill:#63737b; stroke:none;" d="M70 77L71 78L70 77z"/>
<path style="fill:#58b2dd; stroke:none;" d="M71.3333 77.6667L71.3333 78.3333L71.6667 78.3333L71.6667 77.6667L71.3333 77.6667z"/>
<path style="fill:#47addc; stroke:none;" d="M76 77L76.5833 79.0556L76.7778 80.0556L76.9167 81L77 82.9444L77 83.9444L77 86L77.7222 85.2222L77.75 84.6944L77.9444 83.8889L77.9722 82.9722L78 81L77.8889 79.1111L77.7222 78.3333L77.1389 77.3611L76 77z"/>
<path style="fill:#2f8dbd; stroke:none;" d="M82 77L82.1111 78.3889L82.6667 79.3333L82.8611 79.6389L84 80L83.3333 78.25L83.1389 77.7222L82 77z"/>
<path style="fill:#328cba; stroke:none;" d="M87 77L87.25 78.4444L87.5833 79.5556L88 81L88.7222 80.2222L88.7222 79.7222L88.8333 79L88.3333 77.7222L88.1389 77.3611L87 77z"/>
<path style="fill:#2377a4; stroke:none;" d="M95 77L95 81L96.1389 80.2222L96.3333 79.75L96.8889 78.4722L97 77L95 77z"/>
<path style="fill:#1f597b; stroke:none;" d="M6.33333 78.6667L6.33333 79L6.66667 79.3333L6.66667 78.6667L6.33333 78.6667z"/>
<path style="fill:#2c7daa; stroke:none;" d="M11 78L11 81L12.1389 80.2778L12.3333 79.75L13 78L11 78z"/>
<path style="fill:#247fae; stroke:none;" d="M19 78L19 81L20.1389 80.2778L20.3333 79.75L21 78L19 78z"/>
<path style="fill:#63b4dc; stroke:none;" d="M22.3333 78.6667L22.3333 79.3333L22.6667 79.3333L22.6667 78.6667L22.3333 78.6667z"/>
<path style="fill:#40b6ea; stroke:none;" d="M24 78L23.6667 79.5L23.6111 81.0556L23.8056 83L23.9167 84L23.9722 84.9444L24 85.9444L24 88L24.7222 87.2222L24.75 86.6944L24.9444 85.8889L24.9722 84.9722L25 83L24.9722 81.0278L24.9444 80.1111L24.75 79.3056L24.7222 78.7778L24 78z"/>
<path style="fill:#738c98; stroke:none;" d="M27 78L27 81L27.6944 80.25L27.6944 79.1944L27.6944 78.75L27 78z"/>
<path style="fill:#4b4f51; stroke:none;" d="M29.3333 78.6667L29.3333 79.3333L29.6667 79.3333L29.6667 78.6667L29.3333 78.6667z"/>
<path style="fill:#ffffff; stroke:none;" d="M35 78L36 79L35 78z"/>
<path style="fill:#5b8191; stroke:none;" d="M36 78L36 81L36.6944 80.25L36.6944 79.1944L36.6944 78.75L36 78z"/>
<path style="fill:#22363d; stroke:none;" d="M44 78L45 79L44 78z"/>
<path style="fill:#080c0d; stroke:none;" d="M48 78L49 79L48 78z"/>
<path style="fill:#73d3fe; stroke:none;" d="M63 78L63 81L63.6944 80.25L63.6944 79.1944L63.6944 78.75L63 78z"/>
<path style="fill:#5dc8f6; stroke:none;" d="M70 78L70.1111 79.3889L70.6667 80.3333L70.8611 80.6389L72 81L71.3333 79.25L71.1389 78.7222L70 78z"/>
<path style="fill:#448bb3; stroke:none;" d="M76.3333 78.6667L76.3333 79.3333L76.6667 79.3333L76.6667 78.6667L76.3333 78.6667z"/>
<path style="fill:#86d6ff; stroke:none;" d="M80 78L80 81L80.9722 80.2778L81.1667 79.75L82 78L80 78z"/>
<path style="fill:#72d1fc; stroke:none;" d="M89 78L89 81L89.6944 80.25L89.6944 79.1944L89.6944 78.75L89 78z"/>
<path style="fill:#040607; stroke:none;" d="M90 78L90 82L90.7222 81.2222L90.8889 80L90.7222 79.2778L90.7222 78.7778L90 78z"/>
<path style="fill:#1e4d5f; stroke:none;" d="M91.3333 78.6667L91.3333 79.3333L91.6667 79.3333L91.6667 78.6667L91.3333 78.6667z"/>
<path style="fill:#308fbf; stroke:none;" d="M97 78L96.6944 79.4722L96.8889 80.7222L97.6389 81.6389L99 82L98.5556 80.5278L97.9722 79.25L97.8056 78.7778L97 78z"/>
<path style="fill:#4b5f66; stroke:none;" d="M99 78L99 81L99.6944 80.25L99.6944 79.1944L99.6944 78.75L99 78z"/>
<path style="fill:#39a2d4; stroke:none;" d="M21 79L20.5278 80.5L20.6389 81L20.6667 82L21 84L19 84L19 87L20 87L21 85L22 86L22 83.9444L22 82.9444L21.9722 82.0278L21.9444 81.1111L21.75 80.3056L21.7222 79.7778L21 79z"/>
<path style="fill:#315f72; stroke:none;" d="M35 79L35 84L35.7222 83.2222L35.75 82.6944L35.9167 81.9167L35.75 80.3056L35.7222 79.7778L35 79z"/>
<path style="fill:#58a0bf; stroke:none;" d="M44.3333 79.6667L44.3333 80.3333L44.6667 80.3333L44.6667 79.6667L44.3333 79.6667z"/>
<path style="fill:#474f53; stroke:none;" d="M48 79L49 80L48 79z"/>
<path style="fill:#40b6e8; stroke:none;" d="M55.3333 79.6667L55.3333 80L55.6667 80.3333L55.6667 80L55.3333 79.6667z"/>
<path style="fill:#020304; stroke:none;" d="M64 79L64 82L64.6944 81.25L64.6944 80.1944L64.6944 79.75L64 79z"/>
<path style="fill:#33b1e7; stroke:none;" d="M67 79L67 90L71 90L70.75 88.5L70.3611 86.9444L70.1389 86L69.8333 85L69.5556 84L69.1667 83L68.4167 81.1111L68 80.3056L67.8056 79.7778L67 79z"/>
<path style="fill:#647279; stroke:none;" d="M81.3333 79.6667L81.3333 80.3333L81.6667 80.3333L81.6667 79.6667L81.3333 79.6667z"/>
<path style="fill:#2eade4; stroke:none;" d="M84 79L83.2778 80.5L83.25 81.0556L83.0833 82.9444L83.25 83.9444L83.2778 84.5L84 86L84.8056 85.2222L84.9722 84.6944L85.5 82.9722L85.4722 81.1111L84.9722 79.7778L84 79z"/>
<path style="fill:#32373a; stroke:none;" d="M6 80L6 83L6.69444 82.25L6.69444 81.1944L6.69444 80.75L6 80z"/>
<path style="fill:#bcdcec; stroke:none;" d="M14 80L15 81L14 80z"/>
<path style="fill:#305768; stroke:none;" d="M22 80L23 81L22 80z"/>
<path style="fill:#343f44; stroke:none;" d="M30 80L30 84L30.7222 83.2222L30.7222 82.7222L30.8889 82L30.7222 80.7778L30 80z"/>
<path style="fill:#90cdeb; stroke:none;" d="M40 80L40 88L40.7222 87.2222L40.75 86.6944L40.9444 85.8889L40.9722 84.9722L41 84L40.9444 82.1111L40.75 81.3056L40.7222 80.7778L40 80z"/>
<path style="fill:#5b8395; stroke:none;" d="M48 80L49 81L48 80z"/>
<path style="fill:#558193; stroke:none;" d="M52 80L52 83L53.4444 82.5833L54.5556 82.25L56 82L55.2222 81.1944L54.75 81.0278L53.4722 80.4444L52 80z"/>
<path style="fill:#5f6364; stroke:none;" d="M65 80L66 81L65 80z"/>
<path style="fill:#7caec9; stroke:none;" d="M66 80L66 87L66.7222 86.2222L66.75 85.6944L66.9444 84.8889L66.9722 83.9722L66.9444 82.1111L66.75 81.3056L66.7222 80.7778L66 80z"/>
<path style="fill:#516671; stroke:none;" d="M75 80L75.25 81.5L75.6111 83L75.75 83.5L76 85L76.7222 84.2222L76.75 83.6944L76.9167 82.9167L76.7222 81.3333L76.1389 80.3611L75 80z"/>
<path style="fill:#7999ab; stroke:none;" d="M82 80L82 84L82.7222 83.2222L82.8889 82L82.7222 81.2778L82.7222 80.7778L82 80z"/>
<path style="fill:#57b1dc; stroke:none;" d="M91 80L91 84L91.7222 83.2222L91.8889 82L91.7222 81.2778L91.7222 80.7778L91 80z"/>
<path style="fill:#5ccdff; stroke:none;" d="M94 80L94 83L94.6944 82.25L94.6944 81.1944L94.6944 80.75L94 80z"/>
<path style="fill:#85bcdd; stroke:none;" d="M7 81L8 82L7 81z"/>
<path style="fill:#a4e3fe; stroke:none;" d="M11 81L12 82L11 81z"/>
<path style="fill:#050707; stroke:none;" d="M14 81L14 86L14.7222 85.2222L14.75 84.6944L14.9167 83.9167L14.75 82.3056L14.7222 81.7778L14 81z"/>
<path style="fill:#4895bd; stroke:none;" d="M15 81L15 85L15.7222 84.2222L15.7222 83.7222L15.8889 83L15.7222 81.7778L15 81z"/>
<path style="fill:#b0e3fe; stroke:none;" d="M19 81L20 82L19 81z"/>
<path style="fill:#030303; stroke:none;" d="M22.3333 81.6667L22.3333 82.3333L22.6667 82.3333L22.6667 81.6667L22.3333 81.6667z"/>
<path style="fill:#97c3dd; stroke:none;" d="M23 81L24 82L23 81z"/>
<path style="fill:#277797; stroke:none;" d="M27.3333 81.6667L27.3333 82.3333L27.6667 82.3333L27.6667 81.6667L27.3333 81.6667z"/>
<path style="fill:#64b8e1; stroke:none;" d="M31 81L30.75 82.4444L30.4167 83.5556L30 85L31.1389 84.6389L31.3333 84.2778L31.8333 83L31.7222 82.2778L31.7222 81.7778L31 81z"/>
<path style="fill:#5fbeea; stroke:none;" d="M36.3333 81.6667L36.3333 82L36.6667 82.3333L36.6667 82L36.3333 81.6667z"/>
<path style="fill:#48abd9; stroke:none;" d="M41 81L41 83.0556L40.9722 84.0556L40.9167 85L40.5833 86.9444L40 89L41.1389 88.6389L41.7222 87.6667L41.8889 86.8889L42 85L41.9722 84.0278L41.75 82.3056L41.7222 81.7778L41 81z"/>
<path style="fill:#213e49; stroke:none;" d="M45 81L45 87L45.7222 86.2222L45.75 85.6944L45.9444 84.8889L45.9444 83.1111L45.75 82.3056L45.7222 81.7778L45 81z"/>
<path style="fill:#0f1416; stroke:none;" d="M47 81L47 89L47.7222 88.2222L47.75 87.6944L47.9444 86.8889L47.9722 85.9722L48 85L47.9444 83.1111L47.75 82.3056L47.7222 81.7778L47 81z"/>
<path style="fill:#6bafd4; stroke:none;" d="M48 81L48 88L48.7222 87.2222L48.75 86.6944L48.9444 85.8889L48.9722 84.9722L48.9444 83.1111L48.75 82.3056L48.7222 81.7778L48 81z"/>
<path style="fill:#6f96aa; stroke:none;" d="M58 81L58 88L58.7222 87.2222L58.75 86.6944L58.9444 85.8889L58.9722 84.0278L58.9444 83.1111L58.75 82.3056L58.7222 81.7778L58 81z"/>
<path style="fill:#3da5d5; stroke:none;" d="M60 81L60.0278 82.4722L60.2778 83.7222L60.8611 84.6389L62 85L61.5556 83.5278L60.9722 82.25L60.8056 81.7778L60 81z"/>
<path style="fill:#ffffff; stroke:none;" d="M65.3333 81.6667L65.3333 82.3333L65.6667 82.3333L65.6667 81.6667L65.3333 81.6667z"/>
<path style="fill:#3eb9ee; stroke:none;" d="M72 81L71.75 82.5L71.3889 84.0556L71.1667 86L71.25 86.9444L71.4167 87.9444L72 90L72.7222 89.2222L72.75 88.6944L72.9444 87.8889L72.9722 86.9722L73 85L72.9444 83.1111L72.75 82.3056L72.7222 81.7778L72 81z"/>
<path style="fill:#0f2731; stroke:none;" d="M81 81L81 84L81.6944 83.25L81.6944 82.1944L81.6944 81.75L81 81z"/>
<path style="fill:#bdcbd3; stroke:none;" d="M95 81L96 82L95 81z"/>
<path style="fill:#52585d; stroke:none;" d="M96 81L97 82L96 81z"/>
<path style="fill:#377493; stroke:none;" d="M7 82L7 88L7.72222 87.2222L7.75 86.6944L7.94444 85.8889L7.94444 84.1111L7.75 83.3056L7.72222 82.7778L7 82z"/>
<path style="fill:#8bd8fe; stroke:none;" d="M13 82L13 86L13.7222 85.2222L13.8889 84L13.7222 83.2778L13.7222 82.7778L13 82z"/>
<path style="fill:#36647b; stroke:none;" d="M23.3333 82.6667L23.3333 83.3333L23.6667 83.3333L23.6667 82.6667L23.3333 82.6667z"/>
<path style="fill:#a0d6eb; stroke:none;" d="M53 82L54 83L53 82z"/>
<path style="fill:#48a4d1; stroke:none;" d="M54 82L54.7222 82.7222L55.25 82.75L57 83L56.2778 82.2778L55.75 82.25L54 82z"/>
<path style="fill:#597b89; stroke:none;" d="M64 82L65 83L64 82z"/>
<path style="fill:#75d2fc; stroke:none;" d="M75 82L75 87L75.7222 86.2222L75.75 85.6944L75.9167 84.0833L75.75 83.3056L75.7222 82.7778L75 82z"/>
<path style="fill:#606b70; stroke:none;" d="M90 82L91 83L90 82z"/>
<path style="fill:#446d7d; stroke:none;" d="M95 82L96 83L95 82z"/>
<path style="fill:#7dd6fb; stroke:none;" d="M96 82L97 83L96 82z"/>
<path style="fill:#3a5864; stroke:none;" d="M99 82L100 83L99 82z"/>
<path style="fill:#ffffff; stroke:none;" d="M22.3333 83.6667L22.3333 84.3333L22.6667 84.3333L22.6667 83.6667L22.3333 83.6667z"/>
<path style="fill:#6aa9cb; stroke:none;" d="M27 83L28 84L27 83z"/>
<path style="fill:#101416; stroke:none;" d="M28 83L28 86L28.6944 85.25L28.6944 84.8056L28.6944 83.75L28 83z"/>
<path style="fill:#45a1ce; stroke:none;" d="M36 83L36.0278 84.4722L36.2778 85.7222L36.8611 86.6389L38 87L37.5556 85.5278L36.9722 84.25L36.8056 83.7778L36 83z"/>
<path style="fill:#8dd4f3; stroke:none;" d="M52 83L53 84L52 83z"/>
<path style="fill:#32c5ff; stroke:none;" d="M53 83L53.5833 85.0556L53.9167 86.9444L53.9722 87.9444L54 90L55.1944 89.6944L55.5833 89.3333L57 88L56.4167 86L56.2222 85L56.0833 84.5L56 83L53 83z"/>
<path style="fill:#87d3fd; stroke:none;" d="M56 83L57 84L56 83z"/>
<path style="fill:#3b3f41; stroke:none;" d="M57 83L58 84L57 83z"/>
<path style="fill:#62d0ff; stroke:none;" d="M64.3333 83.6667L64.3333 84.3333L64.6667 84.3333L64.6667 83.6667L64.3333 83.6667z"/>
<path style="fill:#030708; stroke:none;" d="M65.3333 83.6667L65.3333 84.3333L65.6667 84.3333L65.6667 83.6667L65.3333 83.6667z"/>
<path style="fill:#2276a4; stroke:none;" d="M85 83L85.0833 84.5L85.2222 85.0556L85.6667 86.9444L86.0278 87.9444L86.1944 88.5L87 90L85 90.25L84.4444 90.2778L83 91L83.7778 91.6667L84.3056 91.6111L86.0278 91.75L87.9444 91.8611L88.5 91.9444L90 92L89.6667 90.5L89.3611 89.9444L88.9167 88.9444L88.3611 88L87.25 86.0278L86.2222 84.3056L86 83.7778L85 83z"/>
<path style="fill:#b1e1ff; stroke:none;" d="M90 83L90 88L90.7222 87.2222L90.75 86.6944L90.9167 85.0833L90.75 84.3056L90.7222 83.7778L90 83z"/>
<path style="fill:#9dd1ed; stroke:none;" d="M99 83L100 84L99 83z"/>
<path style="fill:#47b0e0; stroke:none;" d="M8 84L8 89L8.72222 88.2222L8.75 87.6944L8.91667 86.9167L8.75 85.3056L8.72222 84.7778L8 84z"/>
<path style="fill:#2a9fd2; stroke:none;" d="M11 84L11 87L11.9722 86.2778L12.1667 85.75L13 84L11 84z"/>
<path style="fill:#5c7784; stroke:none;" d="M23.3333 84.6667L23.3333 85.3333L23.6667 85.3333L23.6667 84.6667L23.3333 84.6667z"/>
<path style="fill:#6bd1ff; stroke:none;" d="M27.3333 84.6667L27.3333 85.3333L27.6667 85.3333L27.6667 84.6667L27.3333 84.6667z"/>
<path style="fill:#314851; stroke:none;" d="M29 84L30 85L29 84z"/>
<path style="fill:#8cd9fe; stroke:none;" d="M35 84L35.0278 85.4722L35.2778 86.7222L35.8611 87.6389L37 88L36.5556 86.5278L35.9722 85.25L35.8056 84.7778L35 84z"/>
<path style="fill:#37a2d4; stroke:none;" d="M52 84L52.0833 85.5L52.1944 86.0556L52.3889 87.9444L52.3333 89.5L52 91L56 91L55.3333 89.9167L55.0278 89.5278L54.3056 87.9167L54.1111 87.0278L54 85.5L54 84L52 84z"/>
<path style="fill:#4696b7; stroke:none;" d="M56 84L56 87L56.6944 86.25L56.6944 85.1944L56.6944 84.75L56 84z"/>
<path style="fill:#010101; stroke:none;" d="M57 84L58 85L57 84z"/>
<path style="fill:#5e9ab4; stroke:none;" d="M81.3333 84.6667L81.3333 85.3333L81.6667 85.3333L81.6667 84.6667L81.3333 84.6667z"/>
<path style="fill:#34393c; stroke:none;" d="M82 84L82 90L82.7222 89.2222L82.75 88.6944L82.9444 87.8889L82.9444 86.1111L82.75 85.3056L82.7222 84.7778L82 84z"/>
<path style="fill:#549cc5; stroke:none;" d="M91 84L91 88L92.1111 87.2222L92.2222 86.7222L92.4444 86L92.1111 84.7778L91 84z"/>
<path style="fill:#46a7d4; stroke:none;" d="M95 84L95 88L97 88L97 84L95 84z"/>
<path style="fill:#1c5165; stroke:none;" d="M99.3333 84.6667L99.3333 85.3333L99.6667 85.3333L99.6667 84.6667L99.3333 84.6667z"/>
<path style="fill:#3181af; stroke:none;" d="M12 85L12 88L12.6944 87.25L12.6944 86.8056L12.6944 85.75L12 85z"/>
<path style="fill:#91b8cf; stroke:none;" d="M15 85L15 88L15.6944 87.25L15.6944 86.1944L15.6944 85.75L15 85z"/>
<path style="fill:#46b1e2; stroke:none;" d="M16 85L16 89L16.7222 88.2222L16.7222 87.7222L16.8889 87L16.7222 85.7778L16 85z"/>
<path style="fill:#3181ae; stroke:none;" d="M20 85L20 88L20.6944 87.25L20.6944 86.8056L20.6944 85.75L20 85z"/>
<path style="fill:#97cde2; stroke:none;" d="M22 85L23 86L22 85z"/>
<path style="fill:#67cbfb; stroke:none;" d="M29 85L29 88L29.6944 87.25L29.6944 86.1944L29.6944 85.75L29 85z"/>
<path style="fill:#ffffff; stroke:none;" d="M57.3333 85.6667L57.3333 86.3333L57.6667 86.3333L57.6667 86L57.3333 85.6667z"/>
<path style="fill:#397994; stroke:none;" d="M65.3333 85.6667L65.3333 86.3333L65.6667 86.3333L65.6667 85.6667L65.3333 85.6667z"/>
<path style="fill:#000000; stroke:none;" d="M76 85L76 88L76.6944 87.25L76.6944 86.1944L76.6944 85.75L76 85z"/>
<path style="fill:#73b7db; stroke:none;" d="M83 85L83 88L83.6944 87.25L83.6944 86.1944L83.6944 85.75L83 85z"/>
<path style="fill:#767b7f; stroke:none;" d="M13.3333 86.6667L13.3333 87.3333L13.6667 87.3333L13.6667 87L13.3333 86.6667z"/>
<path style="fill:#9ad1eb; stroke:none;" d="M21.3333 86.6667L21.3333 87.3333L21.6667 87.3333L21.6667 87L21.3333 86.6667z"/>
<path style="fill:#b0c2cb; stroke:none;" d="M23 86L24 87L23 86z"/>
<path style="fill:#455f6d; stroke:none;" d="M28.3333 86.6667L28.3333 87.3333L28.6667 87.3333L28.6667 86.6667L28.3333 86.6667z"/>
<path style="fill:#2475a4; stroke:none;" d="M49 86L48 88L48 89L49.75 91L50.2778 91.5556L51 93L53 92.75L53.5556 92.7222L55 92L54.2778 91.2778L53.75 91.25L52 91L51.6667 89.5L51.3611 88.9722L50.9444 88.0556L50.0556 86.7778L49 86z"/>
<path style="fill:#2c9fd3; stroke:none;" d="M60.6667 86.3333L60.6667 86.6667L61.3333 86.6667L61 86.3333L60.6667 86.3333z"/>
<path style="fill:#72b2d3; stroke:none;" d="M77.3333 86.6667L77.3333 87.3333L77.6667 87.3333L77.6667 86.6667L77.3333 86.6667z"/>
<path style="fill:#298cb4; stroke:none;" d="M81.3333 86.6667L81.3333 87L81.6667 87.3333L81.6667 86.6667L81.3333 86.6667z"/>
<path style="fill:#32c5ff; stroke:none;" d="M84 86L84.0278 87.4722L84.2778 88.7222L84.8611 89.6389L86 90L85.7222 88.5278L85.1389 87.25L84.9722 86.7778L84 86z"/>
<path style="fill:#6cb6da; stroke:none;" d="M85.3333 86.6667L85.3333 87.3333L85.6667 87.3333L85.6667 86.6667L85.3333 86.6667z"/>
<path style="fill:#8bd0f1; stroke:none;" d="M99.3333 86.6667L99.3333 87.3333L99.6667 87.3333L99.6667 86.6667L99.3333 86.6667z"/>
<path style="fill:#586d76; stroke:none;" d="M23 87L24 88L23 87z"/>
<path style="fill:#2275a3; stroke:none;" d="M37 87L37.0833 88.5L37.2222 89.0556L37.3889 90L37.75 91.5L38 93L42 93L41.6389 91.75L41.3056 91.3333L40.75 90.5556L39.4167 89.0278L38.6667 88.2778L38.25 87.7778L37 87z"/>
<path style="fill:#7a9bb1; stroke:none;" d="M44.3333 87.6667L44.3333 88L44.6667 88.3333L44.6667 88L44.3333 87.6667z"/>
<path style="fill:#020303; stroke:none;" d="M45 87L46 88L45 87z"/>
<path style="fill:#31373a; stroke:none;" d="M57 87L57 90L57.6944 89.25L57.6944 88.1944L57.6944 87.75L57 87z"/>
<path style="fill:#2878a4; stroke:none;" d="M60 87L60 88L62 89L62 87L60 87z"/>
<path style="fill:#c5ddec; stroke:none;" d="M65.6667 87.3333L66 87.6667L66.3333 87.6667L66.3333 87.3333L65.6667 87.3333z"/>
<path style="fill:#2274a2; stroke:none;" d="M92 87L92.25 88.5L92.6111 90L92.75 90.5L93 92L98 92L97.6389 90.8333L97.2778 90.5556L96.6667 89.9444L95.0278 88.8056L94.0556 88.1944L93.5 87.75L92 87z"/>
<path style="fill:#839ba9; stroke:none;" d="M7 88L7 91L7.69444 90.25L7.69444 89.8056L7.69444 88.75L7 88z"/>
<path style="fill:#63cefd; stroke:none;" d="M12 88L12 91L12.6944 90.25L12.6944 89.8056L12.6944 88.75L12 88z"/>
<path style="fill:#010203; stroke:none;" d="M13 88L13 91L13.6944 90.25L13.6944 89.8056L13.6944 88.75L13 88z"/>
<path style="fill:#2d4652; stroke:none;" d="M15 88L15 91L15.6944 90.25L15.6944 89.8056L15.6944 88.75L15 88z"/>
<path style="fill:#80ccf1; stroke:none;" d="M19.6667 88.3333L19.6667 88.6667L20.3333 88.6667L20.3333 88.3333L19.6667 88.3333z"/>
<path style="fill:#99b9ca; stroke:none;" d="M23 88L23 91L23.6944 90.25L23.6944 89.1944L23.6944 88.75L23 88z"/>
<path style="fill:#65c4f1; stroke:none;" d="M24.3333 88.6667L24.3333 89.3333L24.6667 89.3333L24.6667 88.6667L24.3333 88.6667z"/>
<path style="fill:#25719d; stroke:none;" d="M29 88L28.6389 89.3889L27.6667 90.3333L26.9444 90.6667L25.5 90.9722L24 91L24 93L26.0556 92.9444L28 92.8333L29 92.7778L30 92.8333L31.9444 92.9444L34 93L33.6389 91.8333L33.2778 91.5556L31.9722 90.4167L30.4722 89.1944L30.0833 88.75L29 88z"/>
<path style="fill:#4e5459; stroke:none;" d="M35.3333 88.6667L35.3333 89L35.6667 89.3333L35.6667 89L35.3333 88.6667z"/>
<path style="fill:#667680; stroke:none;" d="M36.3333 88.6667L36.3333 89L36.6667 89.3333L36.6667 89L36.3333 88.6667z"/>
<path style="fill:#7b8f9f; stroke:none;" d="M56.3333 88.6667L56.3333 89.3333L56.6667 89.3333L56.6667 88.6667L56.3333 88.6667z"/>
<path style="fill:#87d2f3; stroke:none;" d="M66.3333 88.6667L66.3333 89.3333L66.6667 89.3333L66.6667 88.6667L66.3333 88.6667z"/>
<path style="fill:#b7dffa; stroke:none;" d="M71 88L71 91L71.6944 90.25L71.6944 89.1944L71.6944 88.75L71 88z"/>
<path style="fill:#77d3fe; stroke:none;" d="M76.3333 88.6667L76.3333 89L76.6667 89.3333L76.6667 88.6667L76.3333 88.6667z"/>
<path style="fill:#a3c0d4; stroke:none;" d="M77 88L76.5833 89.4444L76.25 90.5556L76 92L77.1389 91.2222L77.3056 90.7222L77.6667 90L77.6944 88.7778L77 88z"/>
<path style="fill:#2d82a5; stroke:none;" d="M83.3333 88.6667L83.3333 89.3333L83.6667 89.3333L83.6667 88.6667L83.3333 88.6667z"/>
<path style="fill:#5ecfff; stroke:none;" d="M90.3333 88.6667L90.3333 89.3333L90.6667 89.3333L90.6667 88.6667L90.3333 88.6667z"/>
<path style="fill:#506069; stroke:none;" d="M91.3333 88.6667L91.3333 89.3333L91.6667 89.3333L91.6667 88.6667L91.3333 88.6667z"/>
<path style="fill:#3d4a53; stroke:none;" d="M99 88L99 91L99.6944 90.25L99.6944 89.1944L99.6944 88.75L99 88z"/>
<path style="fill:#35373a; stroke:none;" d="M44.3333 89.6667L44.3333 90L44.6667 90.3333L44.6667 89.6667L44.3333 89.6667z"/>
<path style="fill:#0c0d0d; stroke:none;" d="M48 89L48.25 91L48.2778 91.5556L49 93L49.6389 92.2222L49.5 91L49.1111 90.2778L48.9722 89.7778L48 89z"/>
<path style="fill:#99b9ce; stroke:none;" d="M61 89L60.5278 90.4444L60.6667 91L61 93L61.7222 92.2222L61.7222 91.7222L61.8889 91L61.7222 89.7778L61 89z"/>
<path style="fill:#8fc5e2; stroke:none;" d="M86 89L87 90L86 89z"/>
<path style="fill:#5587a6; stroke:none;" d="M92.3333 89.6667L92.3333 90.3333L92.6667 90.3333L92.6667 89.6667L92.3333 89.6667z"/>
<path style="fill:#5884a8; stroke:none;" d="M98.3333 89.6667L98.3333 90.3333L98.6667 90.3333L98.6667 89.6667L98.3333 89.6667z"/>
<path style="fill:#2b9ed0; stroke:none;" d="M8 90L8.77778 90.7222L9.25 90.75L10.0556 90.9444L12 91L11.2222 90.2778L10.75 90.25L9.94444 90.0556L8 90z"/>
<path style="fill:#359bcb; stroke:none;" d="M16 90L16.7778 90.7222L17.3056 90.75L18.1111 90.9444L19.0278 90.9722L19.9444 91L20.9444 91L23 91L22.2222 90.2778L21.6944 90.25L20.8889 90.0556L19.9722 90.0278L19.0556 90L18.0556 90L16 90z"/>
<path style="fill:#2a96c8; stroke:none;" d="M24 90L24.7778 90.7222L25.3056 90.75L26.0556 90.9444L26.9722 90.9722L29 91L28.2222 90.2778L27.6944 90.25L26.9444 90.0556L26.0278 90.0278L24 90z"/>
<path style="fill:#32ace0; stroke:none;" d="M31 90L31.7778 90.7222L32.25 90.75L33.0556 90.9444L35 91L34.2222 90.2778L33.75 90.25L32.9444 90.0556L31 90z"/>
<path style="fill:#0d1011; stroke:none;" d="M35 90L35 91L37 92L37 90L35 90z"/>
<path style="fill:#6599bb; stroke:none;" d="M37 90L38 91L37 90z"/>
<path style="fill:#38a5d7; stroke:none;" d="M40 90L40.7222 90.7222L41.25 90.75L43 91L42.2778 90.2778L41.75 90.25L40 90z"/>
<path style="fill:#82a0bc; stroke:none;" d="M43 90L44 91L43 90z"/>
<path style="fill:#9fbacf; stroke:none;" d="M49 90L50 91L49 90z"/>
<path style="fill:#212a32; stroke:none;" d="M56 90L57 91L56 90z"/>
<path style="fill:#749db9; stroke:none;" d="M57.3333 90.6667L57.3333 91.3333L57.6667 91.3333L57.6667 91L57.3333 90.6667z"/>
<path style="fill:#3d79a0; stroke:none;" d="M57 93L58.3889 92.8889L59.3333 92.3333L59.6667 91.7222L59.8889 91.3889L60 90L58.7778 90.3611L57.8611 91.2778L57.5278 91.6111L57 93z"/>
<path style="fill:#2783b2; stroke:none;" d="M62 90L62.7778 90.7222L63.25 90.75L64.0556 90.9444L66 91L65.2222 90.2778L64.75 90.25L63.9444 90.0556L62 90z"/>
<path style="fill:#5590b5; stroke:none;" d="M66.3333 90.6667L66.3333 91.3333L66.6667 91.3333L66.6667 90.6667L66.3333 90.6667z"/>
<path style="fill:#2781af; stroke:none;" d="M67 92L68.4444 91.75L69.5556 91.4167L71 91L70.2222 90.2778L69.7222 90.2778L69 90.1667L67.7222 90.6667L67.3611 90.8611L67 92z"/>
<path style="fill:#246e99; stroke:none;" d="M72 90L72 92L76 92L76 90L72 90z"/>
<path style="fill:#246d99; stroke:none;" d="M77 91L77.7778 91.7222L78.3056 91.75L79.0556 91.9444L79.9722 91.9722L82 92L82 90L80 90.0556L79 90.25L78.5 90.2778L77 91z"/>
<path style="fill:#648395; stroke:none;" d="M82 90L82 92L84 91L84 90L82 90z"/>
<path style="fill:#6b7b84; stroke:none;" d="M90.3333 90.6667L90.3333 91.3333L90.6667 91.3333L90.6667 90.6667L90.3333 90.6667z"/>
<path style="fill:#000101; stroke:none;" d="M91 90L91 92L93 92L92 90L91 90z"/>
<path style="fill:#1f5473; stroke:none;" d="M7.33333 91.6667L7.33333 92L7.66667 92.3333L7.66667 91.6667L7.33333 91.6667z"/>
<path style="fill:#25739e; stroke:none;" d="M8 91L8 93L10 92.9444L11 92.75L11.5 92.7222L13 92L12.2222 91.2778L11.6944 91.25L10.9444 91.0556L10.0278 91.0278L8 91z"/>
<path style="fill:#5e8eab; stroke:none;" d="M15.3333 91.6667L15.3333 92.3333L15.6667 92.3333L15.6667 91.6667L15.3333 91.6667z"/>
<path style="fill:#2774a0; stroke:none;" d="M16 91L16 93L23 93L23 91L16 91z"/>
<path style="fill:#566d7b; stroke:none;" d="M23.3333 91.6667L23.3333 92L23.6667 92.3333L23.6667 91.6667L23.3333 91.6667z"/>
<path style="fill:#899eb1; stroke:none;" d="M34 91L35 92L34 91z"/>
<path style="fill:#63696e; stroke:none;" d="M37 91L38 92L37 91z"/>
<path style="fill:#587386; stroke:none;" d="M42.3333 91.6667L42.3333 92.3333L42.6667 92.3333L42.6667 92L42.3333 91.6667z"/>
<path style="fill:#2b3339; stroke:none;" d="M43 91L44 92L43 91z"/>
<path style="fill:#050506; stroke:none;" d="M44 91L45 92L44 91z"/>
<path style="fill:#737b81; stroke:none;" d="M50.3333 91.6667L50.3333 92.3333L50.6667 92.3333L50.6667 92L50.3333 91.6667z"/>
<path style="fill:#95afc5; stroke:none;" d="M55 91L56 92L55 91z"/>
<path style="fill:#61696e; stroke:none;" d="M56 91L57 92L56 91z"/>
<path style="fill:#586267; stroke:none;" d="M60.3333 91.6667L60.3333 92.3333L60.6667 92.3333L60.6667 92L60.3333 91.6667z"/>
<path style="fill:#246e9a; stroke:none;" d="M62 91L62.7778 91.7222L63.25 91.75L64.0556 91.9444L66 92L65.2222 91.2778L64.75 91.25L63.9444 91.0556L62 91z"/>
<path style="fill:#73a1c0; stroke:none;" d="M69 91L70 92L69 91z"/>
<path style="fill:#708592; stroke:none;" d="M70 91L70 93L72 93L72 91L70 91z"/>
<path style="fill:#9cabba; stroke:none;" d="M85 91L86 92L85 91z"/>
<path style="fill:#070809; stroke:none;" d="M86 91L87 92L86 91z"/>
<path style="fill:#545a5f; stroke:none;" d="M98 91L99 92L98 91z"/>
<path style="fill:#080909; stroke:none;" d="M99 91L100 92L99 91z"/>
<path style="fill:#0a0b0c; stroke:none;" d="M12 92L13 93L12 92z"/>
<path style="fill:#040f15; stroke:none;" d="M15 93L15.7778 93.7222L16.3056 93.75L17.1111 93.9444L18.0278 93.9722L19 94L20 94L22 94L35 94L34.2222 93.2778L33.6944 93.25L31.9722 92.9444L31 92.8056L29 92.6111L28 92.6111L27 92.6944L25 92.9167L23 93L21 93L15 93z"/>
<path style="fill:#2f424d; stroke:none;" d="M29 92L30 93L29 92z"/>
<path style="fill:#4c545a; stroke:none;" d="M34 92L35 93L34 92z"/>
<path style="fill:#0b0b0c; stroke:none;" d="M37 92L38 93L37 92z"/>
<path style="fill:#030404; stroke:none;" d="M43 92L44 93L43 92z"/>
<path style="fill:#8dacc3; stroke:none;" d="M54 92L55 93L54 92z"/>
<path style="fill:#050f15; stroke:none;" d="M50 93L50.7778 93.7222L51.3056 93.75L52.1111 93.9444L53.9444 93.9444L54.9444 93.75L55.5 93.7222L57 93L56.2222 92.3611L55.6944 92.4722L54.8889 92.4444L53.0556 92.7778L51.5 92.9722L50 93z"/>
<path style="fill:#568dae; stroke:none;" d="M62 92L62.7222 92.7222L63.25 92.75L65 93L64.2778 92.2778L63.75 92.25L62 92z"/>
<path style="fill:#7ca4bd; stroke:none;" d="M65 92L65.7778 92.7222L66.25 92.75L67.0556 92.9444L69 93L68.2222 92.2778L67.75 92.25L66.9444 92.0556L65 92z"/>
<path style="fill:#4e626e; stroke:none;" d="M69 92L70 93L69 92z"/>
<path style="fill:#6395b4; stroke:none;" d="M72 92L72.7778 92.7222L73.25 92.75L74.0556 92.9444L76 93L75.2222 92.2778L74.75 92.25L73.9444 92.0556L72 92z"/>
<path style="fill:#181a1b; stroke:none;" d="M76 92L77 93L76 92z"/>
<path style="fill:#699ab7; stroke:none;" d="M77 92L77.7778 92.7222L78.3056 92.75L79.0556 92.9444L79.9722 92.9722L82 93L81.2222 92.2778L80.6944 92.25L79.9444 92.0556L79.0278 92.0278L77 92z"/>
<path style="fill:#2c3940; stroke:none;" d="M82 92L83 93L82 92z"/>
<path style="fill:#76a2bc; stroke:none;" d="M83.6667 92.3333L83.6667 92.6667L84.3333 92.6667L84 92.3333L83.6667 92.3333z"/>
<path style="fill:#3e4b54; stroke:none;" d="M85 92L86 93L85 92z"/>
<path style="fill:#74a4bf; stroke:none;" d="M87 92L87.7222 92.7222L88.25 92.75L90 93L89.2778 92.2778L88.75 92.25L87 92z"/>
<path style="fill:#10171b; stroke:none;" d="M90 92L89 93L87 93L87.7778 93.7222L88.2778 93.7222L89 93.8333L90.2222 93.3889L90.4167 92.9722L90.6111 92.6667L90 92z"/>
<path style="fill:#464e53; stroke:none;" d="M93 92L94 93L93 92z"/>
<path style="fill:#669bbb; stroke:none;" d="M94 92L94.7222 92.7222L95.25 92.75L97 93L96.2778 92.2778L95.75 92.25L94 92z"/>
<path style="fill:#35444e; stroke:none;" d="M97 92L98 93L97 92z"/>
<path style="fill:#080909; stroke:none;" d="M98 92L99 93L98 92z"/>
<path style="fill:#040f15; stroke:none;" d="M7 93L7.77778 93.7222L8.30556 93.75L9.05556 93.9444L9.97222 93.9722L12 94L11.2222 93.2778L10.6944 93.25L9.94444 93.0556L9.02778 93.0278L7 93z"/>
<path style="fill:#061015; stroke:none;" d="M38 93L38.7778 93.7222L39.3056 93.75L40.0556 93.9444L40.9722 93.9722L43 94L42.2222 93.2778L41.6944 93.25L40.9444 93.0556L40.0278 93.0278L38 93z"/>
<path style="fill:#0e1519; stroke:none;" d="M57 93L57.7778 93.7222L58.3056 93.75L59.1111 93.9444L60.0278 93.9722L61 94L62 94L64 94L76 94L75.2222 93.2778L74.6944 93.25L73.8889 93.0556L72.9722 93.0278L72 93L71 93L69 93L57 93z"/>
<path style="fill:#0f161a; stroke:none;" d="M77 93L77.7778 93.7222L78.3056 93.75L79.1111 93.9444L80.0278 93.9722L82 94L82.9444 94L86 94L85.2222 93.2778L84.6944 93.25L83.8889 93.0556L82.9722 93.0278L81 93L80.0556 93L77 93z"/>
<path style="fill:#0d1418; stroke:none;" d="M93 93L93.7778 93.7222L94.3056 93.75L95.0556 93.9444L95.9722 93.9722L98 94L97.2222 93.2778L96.6944 93.25L95.9444 93.0556L95.0278 93.0278L93 93z"/>
</svg>
